<mxfile host="app.diagrams.net" modified="2021-10-16T23:20:29.041Z" agent="5.0 (Windows NT 10.0; Win64; x64) AppleWebKit/537.36 (KHTML, like Gecko) Chrome/94.0.4606.81 Safari/537.36 Edg/94.0.992.50" etag="qw3cV07CTQhpBuY837t-" version="15.5.0" type="github">
  <diagram id="4HQ5UtewpEbBCFn79xZ8" name="Page-1">
    <mxGraphModel dx="1038" dy="579" grid="1" gridSize="10" guides="1" tooltips="1" connect="1" arrows="1" fold="1" page="1" pageScale="1" pageWidth="850" pageHeight="1100" math="0" shadow="0">
      <root>
        <mxCell id="0" />
        <mxCell id="1" parent="0" />
        <mxCell id="cc_eaUNHnA19SBqIS2rI-1" value="" style="sketch=0;aspect=fixed;html=1;points=[];align=center;image;fontSize=12;image=img/lib/mscae/Cognitive_Services.svg;" vertex="1" parent="1">
          <mxGeometry x="513.1" y="200" width="50" height="30" as="geometry" />
        </mxCell>
        <mxCell id="cc_eaUNHnA19SBqIS2rI-2" value="" style="sketch=0;aspect=fixed;html=1;points=[];align=center;image;fontSize=12;image=img/lib/mscae/Machine_Learning_Service_Workspaces.svg;" vertex="1" parent="1">
          <mxGeometry x="517.1" y="350" width="46" height="50" as="geometry" />
        </mxCell>
        <mxCell id="cc_eaUNHnA19SBqIS2rI-3" value="" style="sketch=0;aspect=fixed;html=1;points=[];align=center;image;fontSize=12;image=img/lib/mscae/Data_Lake_Store.svg;" vertex="1" parent="1">
          <mxGeometry x="414" y="280" width="50" height="39" as="geometry" />
        </mxCell>
        <mxCell id="cc_eaUNHnA19SBqIS2rI-4" value="" style="shape=image;imageAspect=0;aspect=fixed;verticalLabelPosition=bottom;verticalAlign=top;image=data:image/png,iVBORw0KGgoAAAANSUhEUgAAAlgAAAE7CAYAAAAB7v+1AAAAAXNSR0IArs4c6QAAAARnQU1BAACxjwv8YQUAAAAJcEhZcwAADsMAAA7DAcdvqGQAACDhSURBVHhe7d1NbFzXecbx2XkT1LsK6cLOIoiApIAWMSA3ia04sCMrsjKkgVS7GOhGS20SDWkgVpGFkEVKIAWiBghAIEBDJBsGaAoWSRA6yAdbFwHJoQWqilzKcnhHjj8I27VpWbLO7X3vHMqj4SE5H/eee857/z/g2SSSyBkNPY/ufee8DQAI3vmV+xtT7QuNVvti4xuXDtn/FQAAACOZWj2TpZMVrNRmq9FabTWeu3af/RUAAAAYSGvlWFamlnuKVX82GtMrTfurAQAAsKfWyoNZeZrvK1P7ZbHx7MoR+7sBAABw1905q9XtvgI1WJjPAgAA6LF7zmrUMJ8FAABq7uA5q9HSWl3PCttx+1UAAABqYPg5q9HSai80ptcO268KAACg0LhzVqNmem0m/9oAAACqFDdnNWq2GlMrZ+13AwAAELGy5qxGDfNZAAAgWr7mrEYN81kAACAaVc1ZjZ4LzGcBAIBwVT9nNWLke86+dwAAgGCENmc1epbzxwIAAFCZ0OesRs98/tgAAAC8iW/Oavh0HxvzWQAAwINo56xGDfNZAACgLHrmrEbM6lLjXPuofTYAAADGoHfOatTMNb5x6ZB9dgAAAIZQhzmrUSPPSat9vvHctfvsswUAAHCA2s1ZjZrsOTq3eto+awAAAA61n7MaNcxnAQCAfsxZFRXmswAAqD3mrIpPPp+12mI+CwCAOmLOquxsNKZXmvbZBgAAqjFn5TuLjWdXjthnHwAAqMKcVbVptS8ynwUAgBbMWYWULeazAACIna45q8UsWq7AMZ8FAEB0VM1Z9R3mObV6vNFaXXf/2uiy2JheO2wfGQAACJKmOauD1tFMrZzNft3Wrt8XY6bXZvJbuQAAICD65qwGO7BTHrcMj7v/jNiSlcWsNAIAgADomrNazm9vDkuOQejOaLn+zLiS3/5cPW4fGQAA8ErbnJUUxXHJ4LiWstlqLzCfBQCAL/rOs7pQ6PyRzGzJ7JaW26XMZwEAUCJtc1ZlX6GRGS6Z5XJ97fiyVcgVPgAA0EPTnJXvGaNz7aPZ19WyGmi0GTUAANBD197Aaj8lp+vDAPP5rWIAADAEbXNWoezh27nN6voeI8vHv3v5/S+vvds+cfWDk/bRAQAAJ21zVnJ0ghyhEBqZ/ZIZMPf3HHQ+9q0X08//+rW0uXknneikeU5cubnSvJFyRQsAgF1U3cLKHkcMu/YiW7tz5CevpE9t3LpbrHqTFa47Jy5v/2vzWsonDgEAUDVnddB6mxDlxzqstrLvP9i1O5/8wUvp8UvvOYtVf069fPv9k1dvfdM+OgAAakbfeVaDrbcJlXzvga3dOfSd9fSxF95yFqmD8tTGrc5T1+88YR8dAADK6ZuzWm7IUQha5Gt3Vpccj9NbZM7q6MKr6anrt53laZh85U83//C1v6TxFl8AAA50bvW0qjkrzYdfVvR39ZkfX09PXv3AWZZGjcxnPXn55g+/fi2N59YtAAAHyg+7rPaqSGHpXnkrdr1NqDyu3fnE96+mT7TfdRakonLq5dvbJ//nJifCAwAip2tdS/nrbUJV4rzc/d++lH7hN284C1FZOfnSB6+ceun2I/bRAQAQCW0Lh32vtwlVwZ/4fOjnnULmrEYN81kAgHiomrOqeL1NqOQ5GeNYh0//6JocDuosPb7T3LzzYfa9/AvzWQCAMGmas5KEst4mVDKDNr0243zu9sjH/+ly+qU/vu0sOlXnqy9/+B7zWQCAcGibswp1vU2oBli7I3NW/ettQs3J//3gOvNZAIDqaJuzmmpvRLHeJlTy3Mlz2Pe8fvZnyZ7rbULOV67e/C3zWQAAvzTNWUlBjG29Tah61u4Ms94m1DCfBQDwQ9ucVezrbQIkV32++sqH8/1lJeY8vvLOpVqcewYA8EzdnFVWEjWttwmAXOVpJun5iY7Z7i8osebJy9vpp2Y3dl43fKIUAFAQdXNWytfbVCQrVs2JxHRcJSXGyMyYzI45X0OciQYAGIu2Oau6rLfxqLmZHpnomEVXSYk18mlH+dTjrtdQf+p6qj8AYET6zrNayFe9oDAyZzV5w1zsLycx5/Hld9IHvnfF/RraL3IWGMUdALAndXsDuZVThmZizk50zJarpMQYOVFeTpZ3voYGD/NZAIA++s6z4s2uBJMdczwrVuuukhJjZAfi0YVXXa+f0UOpBwDkdO0NlNuBF7ldU6ynk/TwRGIWXCUl1jz6+zfTQ99Zd7+Gisk8t6UBoI70nWfFepuCNa+l9092zIX+chJznmi/m37i+1ddr5/iwwcrAKBG9O0NZL1NCSY2zRltxy585sfXXa8fD+FoEADQS9uclTwO1tsUrnkjPTbRMcuukhJjZLn0w794Lf3Yt150v478ZrnRWjlmn2oAQPS0zVmx3qZwcuxCVqzmXCUl1jz2wltlz1mNGuazACBq6uasWG9TNI3rbWTBtCyadr+GAgnzWQAQIX17AzvZv/ifsY8OBZncNKdrs94m2GSvbbnCDAAImMY5K/6VXzi73mbJVVJijMxZDbzeJthwdRYAwqRvzoo5lYJpXG9z6vrtXz3wz3963vH6iTXMFwJAENTtDeQk7KLJnNVEkrYmFK23yR7Lupwsbx9iI3/N5K8dx2sqtvAJWQCokL7zrFhvU4J8vU1iNtwlJcaYLdmFaB/evfJb5Kut7mvJ+RqLLMxnAYA/2uasJNNrM8xZFUvjepusXM3I6fL2Ie5N/vEhK5Ncr7Uow3wWAJRL35wV620KJgVEisjuchJzzKIM5tuHODh1t8+z0sh8FgAUSNsbBettSpGvt9E0Z5WYjWaSjv860fUPk638NijzWQAwBm1zVvnwLm8ORdO23iYviUnakuF8+xDHp+/WOv9IAYChaZyz4uPnhcuK1YNZGZl3l5RYY+bkOAn7EIsnR3/IESDu12iM4TY7AAxE3ZwVA7pFkys7kx1zISsjatbbZI9lafLPxt/rRJYuy/Jl52s2wjCfBQB7mF47rGvOKiuJrLcpnLb1NvJY5DHZh+efHA2i5lgH5rMAYDcpI+7/aMaV7m1N1tsUTK7uyFUeZ0mJMmZbrsIVOmc1KnmtylEhrtdzjJHxAgCApaNgsd6mYDKPJHNJ7pISa8y8zI/ZhxiO/Cpye7HvNR1fKFgA0CPmgiUrSmSmBYVRut5mWT7xaB9iuOTTefIpPddrPYZQsACgR5wFi/U2JZCzn7Stt5EzuuzDi0P+Sd5I1+5QsACgR2wFi/U2hcvX23TMorukxJoB19uEKsaz6ChYANAjnoK1mM+qoDAq19skZkEKo32I8YtpmwIFCwB6hF+wODm6BM3EnM1voblKSoxJzMZkxxy3D0+f/Oc08HPqKFgA0CPcgsXZOiWQEpIVq3VnSYkyJay3CZXcGpejSELdtEDBAoAeYRYs1tsUTON6m8kb5mKp621CJUeStNoLjp+bakPBAoAeQRUs1tsUTeasNK63aW6m7MGbWj2eH1Xi/FmqIBQsAOgRRMFa7eS7EFEoOaKA9TY1EMraHQoWAPSosmCx3qYUGtfbNJP0fC3mrEYlP0OyeNn1c+YrFCwA6FFdwWK9TcGUrreZq+Wc1aieXTmS/WxVs3aHggUAPXwXLNbbFE6u7MgVHrnS4y4pMSaS9TahytfueD7WgYIFAD38FSwV623kEEs5Q8oWmvksi1kcxx5I2cn/v0X5tJvMDpVxJUbdehuZGYttvU2o8rU7WenxdawDBQsAevgqWBHPWdmZphl3kRo2Zn2ncNk/fiTyKbpugXN9jRhjtuXTjlGvtwlVd+1O+UPwFCwA6OGrYEXGnhs1W+qn8OTKU5K2hrmyJb9WCprzz4s12tbbhEg2Irh+LosMBQsAelCw7lFdgTFzB5UMdett5Gqe5vU2IaFgAYBnFKxcGAdyZl/bsfZF43obKYv24cEHChYAeEbBknmmZ+RN310GqohZl7kvuaIlt8/cvybO1Ha9TdUoWADgWc0LVveqlbsMkCJjFllvUyEKFgB4VtOCJbfhsjd9VcuPg0xiNuQoCfu0oyoULADwrIYFS25RZeVq2VkISEFhvU1QKFgA4FnNClZ+/IKmBchBhvU2waFgAYBnNSpY8knB7M1f0afxQotZkuF8+3QjJBQsAPCsRgVL2yfygkliOvJJTPs0I0QULADwrCYFayJfdeMoB2SMsN4mGhQsAPCsBgVLlge7CwIZPWZe5tnsU4zQUbAAwDPlBau7FNlVEMhoMetZsTpmn17EgoIFAJ4pL1hypcVdFMhwYb1N1ChYAOCZ4oLF1auiYmaYs4ocBQsAPFNcsPjU4Lgxi7IP0T6diBkFCwA8U1qwZD2LuzSQA8N6G30oWADgmdKCNcEqnBFitiaStMV6G4UoWADgmcKCla/DcRYIsnfMLOttFKNgAYBnCguWXIVxlwiyO6y3qQUKFgB4prFgdcyiu0yQu0lMZ3LTnLZPGbSjYAGAZ8oKVnehs6NQEBuz3UzS88xZ1QwFCwA801awNtNn3MWCZOWK9TZ1RcECAM+UFaysRMy5y0WdY5ZZb1NzFCwA8ExfwVp3l4waJjEdWXRtnxrUGQULADzTV7C2nGWj1pGhfzMjt0/5xGBNUbAAwDNFBUsGt90Fg+yOWZq8YS7KAmfZ2WifQmhFwQIAzxQVLA4YHSNyO7FjZuXoBhY7K0TBAgDPdBWsY87yQEaIWZKrWyx7VoKCBQCeaSpYHNFQThKzIbcTmd+KGAULADyjYJGhYtblk4ncRowMBQsAPNNUsJK06S4FpPiY7Xxmi6tacaBgAYBnuq5gHXGXAVJuuKoVPAoWAHimqGB97S/pIXcBIH6SX9WaoWgFiIIFAJ4pKljC/cZP/MZsyUJpilZAKFgA4Jm2gpWYDfebPvEfKVrmrBwAa/96UBUKFgB4pu4Klllyv9mTypKYjhQt+1eEKlCwAMAzZQVLbk053+RJ9ZHztDbNaftXBZ8oWADgmbKCJccGON/cSThJzIJ8IMH+lcEHChYAeKasYAm5JeV8YycBxWxNJGnL/pWhbBQsAPBMY8HqmFn3mzoJL2aJfYceULAAwDOFBWuyY46738xJmDHbXM0qGQULADxTWLDkWID8Tdv5Zk7CjVlm9U5JKFgA4JnCgiWyN+sZ95s4CTtZMd40Z+xfI4pCwQIAz5QWrO7aHLPlfhMnoWfyhrnIAaUFomABgGdKC5aQwy1db94klpjl5o30QfvXiXFQsADAM8UFK5/F4siGyGO2spJ1zP6VYlQULADwTHHBElzF0hFW7YyJggUAnikvWPYThcuuN20SW8wcc1kjomABgGfKC5bIB94Ts+F+0yZxxSw3r6X3279aDIqCBQCe1aBgieZmeiR7c1ZwNpbZzh7LMzKXJLfNusut5eR6syjlw/17tIWSNTQKFgB4VpOCJbIy0nS/YccSsy2n1NuHsycpH/LrbPmS4qXw0FWzzMLoIVCwAMCzGhUsIStZ3G/YoWewcrWX/ArepjmT/Tmzam6XZo+DYxwGRMECAM9qVrBE98qO4w072IxXrlzsLdOZ6MsWJWswFCwA8KyGBUtMbprTUlycb9pBpfhy1S/6siUlK3sM9uHAhYIFAJ7VtGAJWSycvTmHexBp9r35PmTTlq1Z5/cTdMwWJWsfFCwA8KzGBUvI7aXszTm4T99NdsyFKs98kgFy+R6kuLi+vyDTLaTcLnShYAGAZzUvWEI+dWc/cRdAmTDrcmXNfmuVk5KXn4Yfze1DjnBwomABgGcUrLvyA0llFqmi2ayqr1odxM6trbu+96CSmAX7LWMHBQsAPKNg7WJvG3qaQ5IyZ2Zjmh/qHnUR9q3DyRvmov12IShYAOAZBWtPedGSs6MSs+B6Ex8vZl2KSqyHZeYzWlmJcT+2MMKC6B4ULADwjII1kPx09O4tsrnRrt5kvycravl6G0WD2PknMTtmyf2Yq4+c3m+/1XqjYAGAZxSskcltvawsHZPiJUPyu5OXqWN1GLrOnotnRiueZSff3XjP7Ve5+pb/vdwb3Z8+pGABgGcULBRESkqYV7Ok+A26kzGfiVtUd7WRggUAnlGwULDu+Vmu8hJrzLo8pqgPMqVgAYBnFCyUIPhT8keNHGaamLMhH6fhRMECAM8oWCiJzJ5NdMy8s6jEnsRsyOydfajho2ABgGcULJSse26Wo6SoiFmWIXn7UMNFwQIAzyhY8KD7KUNXQdESMxf0bUMKFgB4RsGCJ80kbWZFpJI1RH6SX80K81OHFCwA8IyCBY/kdlpWRIJeszNWEtMJaVn3XRQsAPCMggXP5LgD1SVLrtJtmjP24YaBggUAnlGwUIH8UNLEbLgLio4EtQuRggUAnlGwUBH9V7KykhXKJwwpWADgGQULFbIzWZoH37eCGHynYAGAZxQsVEwO7HSXEy0x65Uv/KZgAYBnFCwEQPdhpBIzbx9qNShYAOAZBQuByErIjLuc6Igctmofqn8ULADwjIKFgMjtNFc5UZHEdCo77Z2CBQCeUbAQiO6nCh3FRFEqO7qBggUAnlGwEAiZU3KVEl0x21/7S3rIPmR/KFgA4BkFCwGow9Wrj2Jm7MP2h4IFAJ5RsBCArHTMucuIxlRwFYuCBQCeUbBQMRn8ltLhLiNK43tXIQULADyjYKFicnyBs4RoTmIW7MP3g4IFAJ5RsFAxKRvOEqI6Ztvr6e4ULADwjIKFCknJcBcQ/ZEVQfZpKB8FCwA8o2ChQt1lz+4Coj9m1j4N5aNgAYBnFCxUSP8Owv1ituzTUD4KFgB4RsFChbKSUYPDRfeOtzksChYAeEbBQoWygqV39+AAeTpJD9unolwULADwjIKFCsltMlfxqEtkBs0+FeWiYAGAZxQsVMhVOuoUOQPMPhXlomABgGcULFRE1sW4SketkqQt+3SUi4IFAJ5RsFCR5o30QWfpqFEmb5iL9ukoFwULADyjYKEiFCyJmbFPR7koWADgGQULFeEWYRZuEQKAUhQsVMhZOmoUhtwBQCsKFioy2THHXaWjTuGYBgDQioIFz+RwzYnELLgKR90ic2j2aSkXBQsAPKNgwRNZCyND3a6iUdd8/Vp6n316ykXBAgDPKFjwYGLTnKn7qe27kpiOfXrKR8ECAM8oWCiRzBhlxWrZWTBqHzNrn6byUbAAwDMKFkrQPePKzLuLBZE0k7Rpn67yUbAAwDMKFgokM0VZcTiflattV6kgOzHb3uavBAULADyjYKEgk5vmtMwVuQsFuTdm3j5tflCwAMAzChbGNPlnczQrDEvuIkFc8XbA6A4KFgB4RsHCiLqrbsysq0CQ/WK25bmzT6MfFCwA8IyChSHJ7JDs0MuKAscujBRPC557UbAAwDMKFoYgn3ybSMyGuziQA5OYjverV4KCBQCeUbAwANbbFJNmYs7ap9QvChYAeEbBwj5Yb1NgEtPxejRDLwoWAHhGwcIe5GoLc1bFRY6xsE+tfxQsAPCMgoU+rLcpI57PvepHwQIAzyhYsFhvU1bMcmW3BndQsADAMwpW7cmc1WTHXMiKAOttCo/ZkuJqn+rqULAAwDMKVq2x3qbMmG253Wqf6mpRsADAMwpWLbHepvx4X4ezHwoWAHhGwaoVu95mzlUISFEx25V+YtCFggUAnlGwaoH1Np6SmE5zMz1in/ZwULAAwDMKlnqst/EVs1zJGpxBULAAwDMKllr5epuOWXSXgRhjtuTw08mOOR7eYL6Zq/wohv1QsADAMwqWOjrX25gZeVz2Iea3PLtHS7h+rc+YpWA+KbgfChYAeEbBUkXfehuzuN9Mk/x/8mvcv7fMmHW59Wq/jfBRsADAMwqWCvlts+xN310GIkxiNoYpMHI7dPKGuZg9ByUflpoVq5COXxgUBQsAPKNgRU3fepusICVpa9R5pvz26KY5k/05BV7VMktyZVBKnP0y8Xju2n2N1mory7bz57LIULAAoIevgtVaXW9MrR63XxVj0rnexswV/Sk8mY9qJul5KUnur9kfuQoo5czMyZWqYD8VOAj5ect/7hw/j2WEggUAPXwVrJ202guN6bX4rgQERN74da23MUtysrx9eKWTq2N58eqJ/b90kJ8v+Tlz/fyVGQoWAPTwXbB2Mr020zi/cvdTYTiYuvU23UM545tnCpX8PMnPlevnzUcoWADQo6qC1c1WY2rlrP1OsAd9623Mttze7D12AWOaWj3T/Xly/pz5CQULAHpUW7C6YT7LqWe9jaY5q/nmjfRB+xAxrtbKsexnaHnXz1QVoWABQI8QCtZOmM+6S996G7MuR0nYh4dxtVYezH5m5nf9DFUZChYA9AipYO2kxvNZ1R2cWVa6623sw8O45NiFqfYFL8cuDBsKFgD0CLFgdVOr+az82IX8oExXSYk19663wZjOrZ5uTK12HD8rYYSCBQA9wi1Y3dRgPqtu620wpHPto9nPwJLz5yOkULAAoEfoBWsnCuez6r7eBgf4xqVD2Wt/btfPQqihYAFAj1gK1k4UzGfJp+iyMrLgLClRZrz1Nuizs96m6mMXhg0FCwB6xFawuolyPov1NjjQ9Eoze32Xv5i5jFCwAKBHnAWrm4jms/IFxKy3wV6eXTmSvaYXd73GYwoFCwB6xFywdhLwfBbrbbCvqtfbFBkKFgD0kCtArv9YxpiA5rNYb4MDyW3u2Oas9gsFCwD6yNWf2G9PfJRK57Nk0LuZpOelkLiLSoRJzALrbQok/6jJb287X7/xRq6GAwAcYh6w7U8F81l2vY2mOSvW2xRJ1tvI7WzX6zXuLOYzZACAfcT6EfG94mE+i/U22Jfctg51vc142cj/UQYAGEJ+yOHarOM/qnGmhPksmbPStt5GHg9zVgWaWj2TJdz1NqNlK/9HmPxjDAAwoljWdAyWwuazWG+DfeU/N+3lvtdf/Gm1L+b/+AIAFCT0RbPDZIz5LNbbYF+xrbcZPMxZAUBp5JaAplmSIeaznk7Sw/JpOmdJiTJmWz7tyHqbguSzi+3zzFkBAEYnn4aaas/3/Yc43uwzn8V6GxxI09Xdj8KcFQBUprVyLPsPsZY5k13zWay3wb40rLdxhTkrAAhE/kkpLcc6rK5/7vnXv5mVkWV3SYkwUhKzsmj/tjAuKR9SQlyvn7jDnBUABEfBTrVD31lPH3vhLXdJiTKstymUtjPiPgpzVgAQPBkaj+y06o9968X04V+8ljY37zhKSqRhvU2xdK63Yc4KAKLTXSId/NqdIz95JX1q45a7pEQZ1tsUKsJ/MAwU5qwAIGIB31L5xPevpk+033UUlFjDeptCKbjlvUeYswIANQIaCpY5q0d//6ajoMQb1tsUTNOHNj4Kc1YAoFb+sfbq1u4cXXg1PXX9trOkxBnW2xRK17EjO2HOCgBqw/PBjJ/+0bX0xJWbjoISaVhvUyxtB+fuhDkrAKihfD6r3NUiD3zvSvr48jvukhJlWG9TKA+vwYrCnBUA1J78C7vgqwf3f/tS+oXfvOEoKDGH9TaF0rnehjkrAECfguZfPvuzRNuxC6y3KdK59tEq5wBLCnNWAIAD5J/gGv7KwqdmN9InL287CkqkYb1NsfIrpWuzrtdO1GHOCgAwMDmDaKp9YdebiSNy7MKX/vi2u6REGdbbFCrgs9jGDHNWAIAR7XOKttb1Nk8n6WH76DEumUeKYJvAkGHOCgBQkL49cKy3wb6kmMsVnnuLSexhzgoAUI6/+e566/GV/7vlLinxpbl55z3W2xRI63ob5qwAAGV7dPGNv3185Z1LrsISU2Rdj8yPZW+gy/knKDGeqZWz2XPJnBUAAOP4/POv//2T69tbrvIScmTBtCyadryZzucnimM4fbePlYQ5KwBAtR753ZsXTr70wW1XmQkpMjP2mR9fd72ZfpTuieIX8ltd2J/O9TbMWQEAwvHlX779V1/8z7d+der6beMqN1VGPuUon3aUTz063lD3iJwDtsoZWC47R3hoW2/DnBUAIFQyn/VE+92XXUWnijz2wls7c1ajhvmsXiMeQht4mLMCAMThkcU3/uHJy++/4yo9PiInyn/yBy+53kxHTb3ns3Sut2HOCgAQp0eef/2HpzZufdhfgMqKzFnJLkTHm+n4qeN8VncR+Nw9z0P8Yc4KABC/h3/6yl9/8b/e/m1z805p81kyZ/X5X7+W3v/tS6431IJTg/msfL1N+zxzVgAABO5z/3HjoSfW3n3VVZDGyePL76QPfO+K+w213Oicz8rX2zBnBQBAVD73/OvfPHHl/fddZWmYnLhyM/30j6653kx9R8d8lhQQfettmLMCANTLsd+9+dOnNm7dcZWn/XLq+u30oZ93XG+m1SXm+Sy5ZSa3zlyPK94wZwUAqK+/++VrD3zpv99+QWaoXGWqPz3rbQJNZPNZUkK0rbdhzgoAgK6H/r1z4ssvvveGq1RJ9llvE2rCns/Sud6GOSsAAFy+8JvX//ErV29+sFOsBlpvE3bCms+aXjvcaLUXHN9nzGHOCgCAAz137b5H/7D1bw//8rVbw623CTQhzGfJ155em9n1vcUd5qwAABiaukMuK5rP0rjehjkrAADGpG9Ni5/5LPka8rXc30OsYc4KAIBCnVs9rexKTDnzWfJnyp/t/pqxhjkrAABKI7NEMs+kZYVLkfNZOtfbMGcFAIA36q7SjDmfpe/qHnNWAABURuaMdJ3nNNx8lr75NAlzVgAABGFq5Wz2xqzpRPL957PyT1iuzTp+X8xhzgoAgOBoO+vJNZ+Vz1mpW2/DnBUAAMFTd1q5nc+Sqztylcf5ayINc1YAAERGYyHRE+asAACIls5bajGHOSsAANSQ21ByO8r9pk/KD3NWAACopfNYg7DDnBUAADWh8WDO8MKcFQAAtZPPZ6lbLRNCmLMCAKD2dC5HriLMWQEAgD6yokZW1bjLA9kvzFkBAIB9yaGezGcNGuasAADAgLSt3Sk+zFkBAIARqVu7M3aYswIAAAWZWj2eFYt1R+GoT5izAgAAhavv2h3mrAAAQMnqs3aHOSsAAOCZXNWRqzvuchJzmLMCAAAV07R2hzkrAAAQjPjX7jBnBQAAAiVXf6bac33lJeQwZwUAACIR/tod5qwAAECkQly7w5wVAACInqzdmWpfCGA+izkrAACgTHVrd5izAgAAyvlbu8OcFQAAqJmplbN5CXKXo/HCnBUAAKit4tfuMGcFAACQG3/tDnNWAAAATlKSpCy5S5QrzFkBAAAcaNC1O8xZAQAADGnvtTvMWQEAAIzlXPtoY2p1KStWzFkBiECj8f9iWBXVv+Q4wQAAAABJRU5ErkJggg==;" vertex="1" parent="1">
          <mxGeometry x="500" y="279" width="76.19" height="40" as="geometry" />
        </mxCell>
        <mxCell id="cc_eaUNHnA19SBqIS2rI-5" value="" style="sketch=0;aspect=fixed;html=1;points=[];align=center;image;fontSize=12;image=img/lib/mscae/Logic_Apps.svg;" vertex="1" parent="1">
          <mxGeometry x="310" y="150" width="50" height="39" as="geometry" />
        </mxCell>
        <mxCell id="cc_eaUNHnA19SBqIS2rI-6" value="" style="sketch=0;aspect=fixed;html=1;points=[];align=center;image;fontSize=12;image=img/lib/mscae/Functions.svg;" vertex="1" parent="1">
          <mxGeometry x="310" y="212" width="50" height="46" as="geometry" />
        </mxCell>
        <mxCell id="cc_eaUNHnA19SBqIS2rI-8" value="" style="shape=image;imageAspect=0;aspect=fixed;verticalLabelPosition=bottom;verticalAlign=top;image=data:image/png,iVBORw0KGgoAAAANSUhEUgAAAlgAAAE7CAYAAAAB7v+1AAAAAXNSR0IArs4c6QAAAARnQU1BAACxjwv8YQUAAAAJcEhZcwAADsMAAA7DAcdvqGQAACDhSURBVHhe7d1NbFzXecbx2XkT1LsK6cLOIoiApIAWMSA3ia04sCMrsjKkgVS7GOhGS20SDWkgVpGFkEVKIAWiBghAIEBDJBsGaAoWSRA6yAdbFwHJoQWqilzKcnhHjj8I27VpWbLO7X3vHMqj4SE5H/eee857/z/g2SSSyBkNPY/ufee8DQAI3vmV+xtT7QuNVvti4xuXDtn/FQAAACOZWj2TpZMVrNRmq9FabTWeu3af/RUAAAAYSGvlWFamlnuKVX82GtMrTfurAQAAsKfWyoNZeZrvK1P7ZbHx7MoR+7sBAABw1905q9XtvgI1WJjPAgAA6LF7zmrUMJ8FAABq7uA5q9HSWl3PCttx+1UAAABqYPg5q9HSai80ptcO268KAACg0LhzVqNmem0m/9oAAACqFDdnNWq2GlMrZ+13AwAAELGy5qxGDfNZAAAgWr7mrEYN81kAACAaVc1ZjZ4LzGcBAIBwVT9nNWLke86+dwAAgGCENmc1epbzxwIAAFCZ0OesRs98/tgAAAC8iW/Oavh0HxvzWQAAwINo56xGDfNZAACgLHrmrEbM6lLjXPuofTYAAADGoHfOatTMNb5x6ZB9dgAAAIZQhzmrUSPPSat9vvHctfvsswUAAHCA2s1ZjZrsOTq3eto+awAAAA61n7MaNcxnAQCAfsxZFRXmswAAqD3mrIpPPp+12mI+CwCAOmLOquxsNKZXmvbZBgAAqjFn5TuLjWdXjthnHwAAqMKcVbVptS8ynwUAgBbMWYWULeazAACIna45q8UsWq7AMZ8FAEB0VM1Z9R3mObV6vNFaXXf/2uiy2JheO2wfGQAACJKmOauD1tFMrZzNft3Wrt8XY6bXZvJbuQAAICD65qwGO7BTHrcMj7v/jNiSlcWsNAIAgADomrNazm9vDkuOQejOaLn+zLiS3/5cPW4fGQAA8ErbnJUUxXHJ4LiWstlqLzCfBQCAL/rOs7pQ6PyRzGzJ7JaW26XMZwEAUCJtc1ZlX6GRGS6Z5XJ97fiyVcgVPgAA0EPTnJXvGaNz7aPZ19WyGmi0GTUAANBD197Aaj8lp+vDAPP5rWIAADAEbXNWoezh27nN6voeI8vHv3v5/S+vvds+cfWDk/bRAQAAJ21zVnJ0ghyhEBqZ/ZIZMPf3HHQ+9q0X08//+rW0uXknneikeU5cubnSvJFyRQsAgF1U3cLKHkcMu/YiW7tz5CevpE9t3LpbrHqTFa47Jy5v/2vzWsonDgEAUDVnddB6mxDlxzqstrLvP9i1O5/8wUvp8UvvOYtVf069fPv9k1dvfdM+OgAAakbfeVaDrbcJlXzvga3dOfSd9fSxF95yFqmD8tTGrc5T1+88YR8dAADK6ZuzWm7IUQha5Gt3Vpccj9NbZM7q6MKr6anrt53laZh85U83//C1v6TxFl8AAA50bvW0qjkrzYdfVvR39ZkfX09PXv3AWZZGjcxnPXn55g+/fi2N59YtAAAHyg+7rPaqSGHpXnkrdr1NqDyu3fnE96+mT7TfdRakonLq5dvbJ//nJifCAwAip2tdS/nrbUJV4rzc/d++lH7hN284C1FZOfnSB6+ceun2I/bRAQAQCW0Lh32vtwlVwZ/4fOjnnULmrEYN81kAgHiomrOqeL1NqOQ5GeNYh0//6JocDuosPb7T3LzzYfa9/AvzWQCAMGmas5KEst4mVDKDNr0243zu9sjH/+ly+qU/vu0sOlXnqy9/+B7zWQCAcGibswp1vU2oBli7I3NW/ettQs3J//3gOvNZAIDqaJuzmmpvRLHeJlTy3Mlz2Pe8fvZnyZ7rbULOV67e/C3zWQAAvzTNWUlBjG29Tah61u4Ms94m1DCfBQDwQ9ucVezrbQIkV32++sqH8/1lJeY8vvLOpVqcewYA8EzdnFVWEjWttwmAXOVpJun5iY7Z7i8osebJy9vpp2Y3dl43fKIUAFAQdXNWytfbVCQrVs2JxHRcJSXGyMyYzI45X0OciQYAGIu2Oau6rLfxqLmZHpnomEVXSYk18mlH+dTjrtdQf+p6qj8AYET6zrNayFe9oDAyZzV5w1zsLycx5/Hld9IHvnfF/RraL3IWGMUdALAndXsDuZVThmZizk50zJarpMQYOVFeTpZ3voYGD/NZAIA++s6z4s2uBJMdczwrVuuukhJjZAfi0YVXXa+f0UOpBwDkdO0NlNuBF7ldU6ynk/TwRGIWXCUl1jz6+zfTQ99Zd7+Gisk8t6UBoI70nWfFepuCNa+l9092zIX+chJznmi/m37i+1ddr5/iwwcrAKBG9O0NZL1NCSY2zRltxy585sfXXa8fD+FoEADQS9uclTwO1tsUrnkjPTbRMcuukhJjZLn0w794Lf3Yt150v478ZrnRWjlmn2oAQPS0zVmx3qZwcuxCVqzmXCUl1jz2wltlz1mNGuazACBq6uasWG9TNI3rbWTBtCyadr+GAgnzWQAQIX17AzvZv/ifsY8OBZncNKdrs94m2GSvbbnCDAAImMY5K/6VXzi73mbJVVJijMxZDbzeJthwdRYAwqRvzoo5lYJpXG9z6vrtXz3wz3963vH6iTXMFwJAENTtDeQk7KLJnNVEkrYmFK23yR7Lupwsbx9iI3/N5K8dx2sqtvAJWQCokL7zrFhvU4J8vU1iNtwlJcaYLdmFaB/evfJb5Kut7mvJ+RqLLMxnAYA/2uasJNNrM8xZFUvjepusXM3I6fL2Ie5N/vEhK5Ncr7Uow3wWAJRL35wV620KJgVEisjuchJzzKIM5tuHODh1t8+z0sh8FgAUSNsbBettSpGvt9E0Z5WYjWaSjv860fUPk638NijzWQAwBm1zVvnwLm8ORdO23iYviUnakuF8+xDHp+/WOv9IAYChaZyz4uPnhcuK1YNZGZl3l5RYY+bkOAn7EIsnR3/IESDu12iM4TY7AAxE3ZwVA7pFkys7kx1zISsjatbbZI9lafLPxt/rRJYuy/Jl52s2wjCfBQB7mF47rGvOKiuJrLcpnLb1NvJY5DHZh+efHA2i5lgH5rMAYDcpI+7/aMaV7m1N1tsUTK7uyFUeZ0mJMmZbrsIVOmc1KnmtylEhrtdzjJHxAgCApaNgsd6mYDKPJHNJ7pISa8y8zI/ZhxiO/Cpye7HvNR1fKFgA0CPmgiUrSmSmBYVRut5mWT7xaB9iuOTTefIpPddrPYZQsACgR5wFi/U2JZCzn7Stt5EzuuzDi0P+Sd5I1+5QsACgR2wFi/U2hcvX23TMorukxJoB19uEKsaz6ChYANAjnoK1mM+qoDAq19skZkEKo32I8YtpmwIFCwB6hF+wODm6BM3EnM1voblKSoxJzMZkxxy3D0+f/Oc08HPqKFgA0CPcgsXZOiWQEpIVq3VnSYkyJay3CZXcGpejSELdtEDBAoAeYRYs1tsUTON6m8kb5mKp621CJUeStNoLjp+bakPBAoAeQRUs1tsUTeasNK63aW6m7MGbWj2eH1Xi/FmqIBQsAOgRRMFa7eS7EFEoOaKA9TY1EMraHQoWAPSosmCx3qYUGtfbNJP0fC3mrEYlP0OyeNn1c+YrFCwA6FFdwWK9TcGUrreZq+Wc1aieXTmS/WxVs3aHggUAPXwXLNbbFE6u7MgVHrnS4y4pMSaS9TahytfueD7WgYIFAD38FSwV623kEEs5Q8oWmvksi1kcxx5I2cn/v0X5tJvMDpVxJUbdehuZGYttvU2o8rU7WenxdawDBQsAevgqWBHPWdmZphl3kRo2Zn2ncNk/fiTyKbpugXN9jRhjtuXTjlGvtwlVd+1O+UPwFCwA6OGrYEXGnhs1W+qn8OTKU5K2hrmyJb9WCprzz4s12tbbhEg2Irh+LosMBQsAelCw7lFdgTFzB5UMdett5Gqe5vU2IaFgAYBnFKxcGAdyZl/bsfZF43obKYv24cEHChYAeEbBknmmZ+RN310GqohZl7kvuaIlt8/cvybO1Ha9TdUoWADgWc0LVveqlbsMkCJjFllvUyEKFgB4VtOCJbfhsjd9VcuPg0xiNuQoCfu0oyoULADwrIYFS25RZeVq2VkISEFhvU1QKFgA4FnNClZ+/IKmBchBhvU2waFgAYBnNSpY8knB7M1f0afxQotZkuF8+3QjJBQsAPCsRgVL2yfygkliOvJJTPs0I0QULADwrCYFayJfdeMoB2SMsN4mGhQsAPCsBgVLlge7CwIZPWZe5tnsU4zQUbAAwDPlBau7FNlVEMhoMetZsTpmn17EgoIFAJ4pL1hypcVdFMhwYb1N1ChYAOCZ4oLF1auiYmaYs4ocBQsAPFNcsPjU4Lgxi7IP0T6diBkFCwA8U1qwZD2LuzSQA8N6G30oWADgmdKCNcEqnBFitiaStMV6G4UoWADgmcKCla/DcRYIsnfMLOttFKNgAYBnCguWXIVxlwiyO6y3qQUKFgB4prFgdcyiu0yQu0lMZ3LTnLZPGbSjYAGAZ8oKVnehs6NQEBuz3UzS88xZ1QwFCwA801awNtNn3MWCZOWK9TZ1RcECAM+UFaysRMy5y0WdY5ZZb1NzFCwA8ExfwVp3l4waJjEdWXRtnxrUGQULADzTV7C2nGWj1pGhfzMjt0/5xGBNUbAAwDNFBUsGt90Fg+yOWZq8YS7KAmfZ2WifQmhFwQIAzxQVLA4YHSNyO7FjZuXoBhY7K0TBAgDPdBWsY87yQEaIWZKrWyx7VoKCBQCeaSpYHNFQThKzIbcTmd+KGAULADyjYJGhYtblk4ncRowMBQsAPNNUsJK06S4FpPiY7Xxmi6tacaBgAYBnuq5gHXGXAVJuuKoVPAoWAHimqGB97S/pIXcBIH6SX9WaoWgFiIIFAJ4pKljC/cZP/MZsyUJpilZAKFgA4Jm2gpWYDfebPvEfKVrmrBwAa/96UBUKFgB4pu4Klllyv9mTypKYjhQt+1eEKlCwAMAzZQVLbk053+RJ9ZHztDbNaftXBZ8oWADgmbKCJccGON/cSThJzIJ8IMH+lcEHChYAeKasYAm5JeV8YycBxWxNJGnL/pWhbBQsAPBMY8HqmFn3mzoJL2aJfYceULAAwDOFBWuyY46738xJmDHbXM0qGQULADxTWLDkWID8Tdv5Zk7CjVlm9U5JKFgA4JnCgiWyN+sZ95s4CTtZMd40Z+xfI4pCwQIAz5QWrO7aHLPlfhMnoWfyhrnIAaUFomABgGdKC5aQwy1db94klpjl5o30QfvXiXFQsADAM8UFK5/F4siGyGO2spJ1zP6VYlQULADwTHHBElzF0hFW7YyJggUAnikvWPYThcuuN20SW8wcc1kjomABgGfKC5bIB94Ts+F+0yZxxSw3r6X3279aDIqCBQCe1aBgieZmeiR7c1ZwNpbZzh7LMzKXJLfNusut5eR6syjlw/17tIWSNTQKFgB4VpOCJbIy0nS/YccSsy2n1NuHsycpH/LrbPmS4qXw0FWzzMLoIVCwAMCzGhUsIStZ3G/YoWewcrWX/ArepjmT/Tmzam6XZo+DYxwGRMECAM9qVrBE98qO4w072IxXrlzsLdOZ6MsWJWswFCwA8KyGBUtMbprTUlycb9pBpfhy1S/6siUlK3sM9uHAhYIFAJ7VtGAJWSycvTmHexBp9r35PmTTlq1Z5/cTdMwWJWsfFCwA8KzGBUvI7aXszTm4T99NdsyFKs98kgFy+R6kuLi+vyDTLaTcLnShYAGAZzUvWEI+dWc/cRdAmTDrcmXNfmuVk5KXn4Yfze1DjnBwomABgGcUrLvyA0llFqmi2ayqr1odxM6trbu+96CSmAX7LWMHBQsAPKNg7WJvG3qaQ5IyZ2Zjmh/qHnUR9q3DyRvmov12IShYAOAZBWtPedGSs6MSs+B6Ex8vZl2KSqyHZeYzWlmJcT+2MMKC6B4ULADwjII1kPx09O4tsrnRrt5kvycravl6G0WD2PknMTtmyf2Yq4+c3m+/1XqjYAGAZxSskcltvawsHZPiJUPyu5OXqWN1GLrOnotnRiueZSff3XjP7Ve5+pb/vdwb3Z8+pGABgGcULBRESkqYV7Ok+A26kzGfiVtUd7WRggUAnlGwULDu+Vmu8hJrzLo8pqgPMqVgAYBnFCyUIPhT8keNHGaamLMhH6fhRMECAM8oWCiJzJ5NdMy8s6jEnsRsyOydfajho2ABgGcULJSse26Wo6SoiFmWIXn7UMNFwQIAzyhY8KD7KUNXQdESMxf0bUMKFgB4RsGCJ80kbWZFpJI1RH6SX80K81OHFCwA8IyCBY/kdlpWRIJeszNWEtMJaVn3XRQsAPCMggXP5LgD1SVLrtJtmjP24YaBggUAnlGwUIH8UNLEbLgLio4EtQuRggUAnlGwUBH9V7KykhXKJwwpWADgGQULFbIzWZoH37eCGHynYAGAZxQsVEwO7HSXEy0x65Uv/KZgAYBnFCwEQPdhpBIzbx9qNShYAOAZBQuByErIjLuc6Igctmofqn8ULADwjIKFgMjtNFc5UZHEdCo77Z2CBQCeUbAQiO6nCh3FRFEqO7qBggUAnlGwEAiZU3KVEl0x21/7S3rIPmR/KFgA4BkFCwGow9Wrj2Jm7MP2h4IFAJ5RsBCArHTMucuIxlRwFYuCBQCeUbBQMRn8ltLhLiNK43tXIQULADyjYKFicnyBs4RoTmIW7MP3g4IFAJ5RsFAxKRvOEqI6Ztvr6e4ULADwjIKFCknJcBcQ/ZEVQfZpKB8FCwA8o2ChQt1lz+4Coj9m1j4N5aNgAYBnFCxUSP8Owv1ituzTUD4KFgB4RsFChbKSUYPDRfeOtzksChYAeEbBQoWygqV39+AAeTpJD9unolwULADwjIKFCsltMlfxqEtkBs0+FeWiYAGAZxQsVMhVOuoUOQPMPhXlomABgGcULFRE1sW4SketkqQt+3SUi4IFAJ5RsFCR5o30QWfpqFEmb5iL9ukoFwULADyjYKEiFCyJmbFPR7koWADgGQULFeEWYRZuEQKAUhQsVMhZOmoUhtwBQCsKFioy2THHXaWjTuGYBgDQioIFz+RwzYnELLgKR90ic2j2aSkXBQsAPKNgwRNZCyND3a6iUdd8/Vp6n316ykXBAgDPKFjwYGLTnKn7qe27kpiOfXrKR8ECAM8oWCiRzBhlxWrZWTBqHzNrn6byUbAAwDMKFkrQPePKzLuLBZE0k7Rpn67yUbAAwDMKFgokM0VZcTiflattV6kgOzHb3uavBAULADyjYKEgk5vmtMwVuQsFuTdm3j5tflCwAMAzChbGNPlnczQrDEvuIkFc8XbA6A4KFgB4RsHCiLqrbsysq0CQ/WK25bmzT6MfFCwA8IyChSHJ7JDs0MuKAscujBRPC557UbAAwDMKFoYgn3ybSMyGuziQA5OYjverV4KCBQCeUbAwANbbFJNmYs7ap9QvChYAeEbBwj5Yb1NgEtPxejRDLwoWAHhGwcIe5GoLc1bFRY6xsE+tfxQsAPCMgoU+rLcpI57PvepHwQIAzyhYsFhvU1bMcmW3BndQsADAMwpW7cmc1WTHXMiKAOttCo/ZkuJqn+rqULAAwDMKVq2x3qbMmG253Wqf6mpRsADAMwpWLbHepvx4X4ezHwoWAHhGwaoVu95mzlUISFEx25V+YtCFggUAnlGwaoH1Np6SmE5zMz1in/ZwULAAwDMKlnqst/EVs1zJGpxBULAAwDMKllr5epuOWXSXgRhjtuTw08mOOR7eYL6Zq/wohv1QsADAMwqWOjrX25gZeVz2Iea3PLtHS7h+rc+YpWA+KbgfChYAeEbBUkXfehuzuN9Mk/x/8mvcv7fMmHW59Wq/jfBRsADAMwqWCvlts+xN310GIkxiNoYpMHI7dPKGuZg9ByUflpoVq5COXxgUBQsAPKNgRU3fepusICVpa9R5pvz26KY5k/05BV7VMktyZVBKnP0y8Xju2n2N1mory7bz57LIULAAoIevgtVaXW9MrR63XxVj0rnexswV/Sk8mY9qJul5KUnur9kfuQoo5czMyZWqYD8VOAj5ect/7hw/j2WEggUAPXwVrJ202guN6bX4rgQERN74da23MUtysrx9eKWTq2N58eqJ/b90kJ8v+Tlz/fyVGQoWAPTwXbB2Mr020zi/cvdTYTiYuvU23UM545tnCpX8PMnPlevnzUcoWADQo6qC1c1WY2rlrP1OsAd9623Mttze7D12AWOaWj3T/Xly/pz5CQULAHpUW7C6YT7LqWe9jaY5q/nmjfRB+xAxrtbKsexnaHnXz1QVoWABQI8QCtZOmM+6S996G7MuR0nYh4dxtVYezH5m5nf9DFUZChYA9AipYO2kxvNZ1R2cWVa6623sw8O45NiFqfYFL8cuDBsKFgD0CLFgdVOr+az82IX8oExXSYk19663wZjOrZ5uTK12HD8rYYSCBQA9wi1Y3dRgPqtu620wpHPto9nPwJLz5yOkULAAoEfoBWsnCuez6r7eBgf4xqVD2Wt/btfPQqihYAFAj1gK1k4UzGfJp+iyMrLgLClRZrz1Nuizs96m6mMXhg0FCwB6xFawuolyPov1NjjQ9Eoze32Xv5i5jFCwAKBHnAWrm4jms/IFxKy3wV6eXTmSvaYXd73GYwoFCwB6xFywdhLwfBbrbbCvqtfbFBkKFgD0kCtArv9YxpiA5rNYb4MDyW3u2Oas9gsFCwD6yNWf2G9PfJRK57Nk0LuZpOelkLiLSoRJzALrbQok/6jJb287X7/xRq6GAwAcYh6w7U8F81l2vY2mOSvW2xRJ1tvI7WzX6zXuLOYzZACAfcT6EfG94mE+i/U22Jfctg51vc142cj/UQYAGEJ+yOHarOM/qnGmhPksmbPStt5GHg9zVgWaWj2TJdz1NqNlK/9HmPxjDAAwoljWdAyWwuazWG+DfeU/N+3lvtdf/Gm1L+b/+AIAFCT0RbPDZIz5LNbbYF+xrbcZPMxZAUBp5JaAplmSIeaznk7Sw/JpOmdJiTJmWz7tyHqbguSzi+3zzFkBAEYnn4aaas/3/Yc43uwzn8V6GxxI09Xdj8KcFQBUprVyLPsPsZY5k13zWay3wb40rLdxhTkrAAhE/kkpLcc6rK5/7vnXv5mVkWV3SYkwUhKzsmj/tjAuKR9SQlyvn7jDnBUABEfBTrVD31lPH3vhLXdJiTKstymUtjPiPgpzVgAQPBkaj+y06o9968X04V+8ljY37zhKSqRhvU2xdK63Yc4KAKLTXSId/NqdIz95JX1q45a7pEQZ1tsUKsJ/MAwU5qwAIGIB31L5xPevpk+033UUlFjDeptCKbjlvUeYswIANQIaCpY5q0d//6ajoMQb1tsUTNOHNj4Kc1YAoFb+sfbq1u4cXXg1PXX9trOkxBnW2xRK17EjO2HOCgBqw/PBjJ/+0bX0xJWbjoISaVhvUyxtB+fuhDkrAKihfD6r3NUiD3zvSvr48jvukhJlWG9TKA+vwYrCnBUA1J78C7vgqwf3f/tS+oXfvOEoKDGH9TaF0rnehjkrAECfguZfPvuzRNuxC6y3KdK59tEq5wBLCnNWAIAD5J/gGv7KwqdmN9InL287CkqkYb1NsfIrpWuzrtdO1GHOCgAwMDmDaKp9YdebiSNy7MKX/vi2u6REGdbbFCrgs9jGDHNWAIAR7XOKttb1Nk8n6WH76DEumUeKYJvAkGHOCgBQkL49cKy3wb6kmMsVnnuLSexhzgoAUI6/+e566/GV/7vlLinxpbl55z3W2xRI63ob5qwAAGV7dPGNv3185Z1LrsISU2Rdj8yPZW+gy/knKDGeqZWz2XPJnBUAAOP4/POv//2T69tbrvIScmTBtCyadryZzucnimM4fbePlYQ5KwBAtR753ZsXTr70wW1XmQkpMjP2mR9fd72ZfpTuieIX8ltd2J/O9TbMWQEAwvHlX779V1/8z7d+der6beMqN1VGPuUon3aUTz063lD3iJwDtsoZWC47R3hoW2/DnBUAIFQyn/VE+92XXUWnijz2wls7c1ajhvmsXiMeQht4mLMCAMThkcU3/uHJy++/4yo9PiInyn/yBy+53kxHTb3ns3Sut2HOCgAQp0eef/2HpzZufdhfgMqKzFnJLkTHm+n4qeN8VncR+Nw9z0P8Yc4KABC/h3/6yl9/8b/e/m1z805p81kyZ/X5X7+W3v/tS6431IJTg/msfL1N+zxzVgAABO5z/3HjoSfW3n3VVZDGyePL76QPfO+K+w213Oicz8rX2zBnBQBAVD73/OvfPHHl/fddZWmYnLhyM/30j6653kx9R8d8lhQQfettmLMCANTLsd+9+dOnNm7dcZWn/XLq+u30oZ93XG+m1SXm+Sy5ZSa3zlyPK94wZwUAqK+/++VrD3zpv99+QWaoXGWqPz3rbQJNZPNZUkK0rbdhzgoAgK6H/r1z4ssvvveGq1RJ9llvE2rCns/Sud6GOSsAAFy+8JvX//ErV29+sFOsBlpvE3bCms+aXjvcaLUXHN9nzGHOCgCAAz137b5H/7D1bw//8rVbw623CTQhzGfJ155em9n1vcUd5qwAABiaukMuK5rP0rjehjkrAADGpG9Ni5/5LPka8rXc30OsYc4KAIBCnVs9rexKTDnzWfJnyp/t/pqxhjkrAABKI7NEMs+kZYVLkfNZOtfbMGcFAIA36q7SjDmfpe/qHnNWAABURuaMdJ3nNNx8lr75NAlzVgAABGFq5Wz2xqzpRPL957PyT1iuzTp+X8xhzgoAgOBoO+vJNZ+Vz1mpW2/DnBUAAMFTd1q5nc+Sqztylcf5ayINc1YAAERGYyHRE+asAACIls5bajGHOSsAANSQ21ByO8r9pk/KD3NWAACopfNYg7DDnBUAADWh8WDO8MKcFQAAtZPPZ6lbLRNCmLMCAKD2dC5HriLMWQEAgD6yokZW1bjLA9kvzFkBAIB9yaGezGcNGuasAADAgLSt3Sk+zFkBAIARqVu7M3aYswIAAAWZWj2eFYt1R+GoT5izAgAAhavv2h3mrAAAQMnqs3aHOSsAAOCZXNWRqzvuchJzmLMCAAAV07R2hzkrAAAQjPjX7jBnBQAAAiVXf6bac33lJeQwZwUAACIR/tod5qwAAECkQly7w5wVAACInqzdmWpfCGA+izkrAACgTHVrd5izAgAAyvlbu8OcFQAAqJmplbN5CXKXo/HCnBUAAKit4tfuMGcFAACQG3/tDnNWAAAATlKSpCy5S5QrzFkBAAAcaNC1O8xZAQAADGnvtTvMWQEAAIzlXPtoY2p1KStWzFkBiECj8f9iWBXVv+Q4wQAAAABJRU5ErkJggg==;" vertex="1" parent="1">
          <mxGeometry x="296.9" y="280" width="76.19" height="40" as="geometry" />
        </mxCell>
        <mxCell id="cc_eaUNHnA19SBqIS2rI-9" value="" style="sketch=0;aspect=fixed;html=1;points=[];align=center;image;fontSize=12;image=img/lib/mscae/Event_Hubs.svg;" vertex="1" parent="1">
          <mxGeometry x="262" y="360" width="48" height="50" as="geometry" />
        </mxCell>
        <mxCell id="cc_eaUNHnA19SBqIS2rI-10" value="" style="sketch=0;aspect=fixed;html=1;points=[];align=center;image;fontSize=12;image=img/lib/mscae/Stream_Analytics.svg;" vertex="1" parent="1">
          <mxGeometry x="360" y="366" width="50" height="39" as="geometry" />
        </mxCell>
        <mxCell id="cc_eaUNHnA19SBqIS2rI-11" value="" style="shape=image;imageAspect=0;aspect=fixed;verticalLabelPosition=bottom;verticalAlign=top;image=data:image/png,iVBORw0KGgoAAAANSUhEUgAAAdMAAAJiCAYAAACcgCjgAAAAAXNSR0IArs4c6QAAAARnQU1BAACxjwv8YQUAAAAJcEhZcwAADsMAAA7DAcdvqGQAAKUvSURBVHhe7d13vBT12T7+35/fWAAx5cmTJ8bYERRENHaNGjWmqYmmGDWxC9J77733qoBiQSwgAgLSe++99344vZ9z/+77MzO7s3Nmd2d3Zvt1vV7Xa5Fzzu7Z4r65P1P2/yMEQRAEQVwFmCIIgiCIywBTBEEQBHEZYIogCIIgLgNMEQRBEMRlgCmCIAiCuAwwRRAEQRCXAaYIgiAI4jLAFEEQBEFcBpgiCIIgiMsAUwRBEARxGWCKIAiCIC4DTBEEQRDEZYApgiAIgrgMMEUQBEEQlwGmCIIgCOIywBRBEARBXAaYIgiCIIjLAFMEQRAEcRlgiiAIgiAuA0wRBEEQxGWAKYIgCIK4DDBFEARBEJcBpgiCIAjiMsAUQRAEQVwGmCIIgiCIywBTBEEQBHEZYIogiKeZuyGP3h5xjp7ueJSebHOIftcuWXqYe5B+1+aAwxrfu99S/e9a7+NavtZ6b/C22sPdpbWFdKfqk823c7fSE9KmW3x9vOlm7hZ6vf8++n5nMZVX6A8wkpQBpgiCeJYW487QT14+Rdf+i/v3I0nSw1pfMveQpQfp2hetPWDpfrr2b+bu87XmX43uNXUPdzfVfIH7/C5Td+rdQTWf2041/7KVrvnLFrrmz5u5m+iaP23kbqAaf1hPV/9uKdVpfYoen0LUenYJ5RZX6o80kmzJGEwvFxFtOUX0zU6ioSu0dluIplrleZu8kWjJIf2JRZImA744x5Cep2sYkGte2Jng7tDKYPm7vWqf22Ypw2auIFeljJ7eGgygv5tM3chlEAXFP643dR13LUO5hmo8u5q7iqr/fgV3OXcZVX9mCXcxVXt6MV356LdU6/0d9MiIQnpwWBH9djJRm++KKQ+gJmXSGlMBVN586w0jqtGN72xbNN363FTtOUYSmyFfnqdf/5snMZ7S7HGLR6PB0wKomhLtEA2Hp16eKhWgvhqA6jUhWuPZlTqkOqIMaPWnf+AuoisfnkU3v7XRB+kDQwu4hfTbD4l6fF9ABSUANdmSlpgKos1mA9BMqzznSGLy45cO8kS6RwPNFrpYNRygdnhKTYD6ELUCqiHqDFAzogyoUZlG/yCI6tPoH/Rp9Fl9Gn2GIX1aIF1E1Z9ayJcL6YqHZtKvX1lJjwzPpweHF+uQ6mVYH2NQx6wooaIy/cFHkiJph6ks/13fr+obLZoZlX9AyVI+Et9c88IuC3KxqmAdDlCuCzzDA2rgaa4JUd9yroGo1DyN6og+s5Tx5Gn0KZ5Gn1rAf17AkH5D1724mB4akkMPjbBAqvfB4SX02AdE09YXUUkZJtRkSVphKtvUMI2iUnktIPFLzRcP8WQaK1C9AjQ4ntEDqvePUh3QAET902iN3xuQ6oga0+jv5vPlfLry4Zn087/MpQcGXKIHR5QwnIVVIFUdwqCOKKNHxxPN3VlCpeUANRmSNpjKEp/dmyqauZXtqUh8Uu+d/QyelzseRYOnBVBPtn8GwdMHqDGJWqdR2Taqbx/9vUBqLOsypGr7qEDK0+jvvlcVSH/y9Lf0m15n/BMpoxm0g/PpoZEV9PDIElq+Xw6bAaiJTlpgKjug2L2ZWitT62P8rzmBV2reSxRNjcrzJs+h3fNrV2xHjU8OnCym33c4TDX/eUqD0BbIcI0GUBOeAYhaAdUQDQ2oFU87QM14miuQMqLPSgN3MhJIawikT8tEKoj+wIAypE/OU73y0ZlU8/Ev6Z7ux+lhNZEKmPnhOziPHh5N9OTYYtpxqpzAaWKT8ph+s7PqG6i18uYr3yc7JiHpE3lOncAq34fENpX8Tn74TCnd+uZBqvn3YxqMtmCaK99jxlMaBaAx2f5p4GnUDk+ZQo2aEfUv69Z4hiH17WSkbx8VSH/HkD4xl656bBZVe2Q61e9wSC3t3s+Q3s9QOq6AOpboTxOL6OD5Uv3ZQBKRlMZUcAy1s5FMojhsIv0jx53aPf9G5XWAf0jFPpUs6tZDhfTLVxjUlw7rWHoFqAXREMu3kQNqwjMAUSugOqI+QHVEzUu6z+rTqEJ0uT2kMpE+MYeu/u23dPWDn1Hd1nvp4VHaRGoLZrgKqBOI/jm1gM7mlOvPBhLvpDSmsuxn9+YpFWTlJA1IZuRIVuh/WP3nC/0bkZhGJtRFW3Lpxy8domtePOAdnkEB1RANjSc3AE8bQEPhaQuoUfN2UW3bqB9SWdZlSJ8ylnbnB0B65f3T6PZGW7RtpEMY0sECY/R9ZCLRe18U0eUCgJqIpCymMmkE23NX/h6QZl4E1GCvCal8HYl9BNTpS7N4Oj1K1/x1rw6mDaLh8HQFqBVPp4DqeIYE1ISoD1L/tlGZRhWkT8k0ypD+biEj+r0P0mqPf0tX3DeNbntrHT08vIghLbTFMZoKqG1nFVA+zpIU96QspqF2OsLSbuYm1DZ0vC7iF9m5dNSs81TzHyd5Mt3FeDKWTgBNyPZPHdGQeBqAWpZ0FaI6pDKNPs2QqmlUh1QOfVGQzmVIv1OQ/ujeaXTDq8vpoaH5JIe/2KEYfQvosUlE/RYWUWEpQI1nUhZTOezB7g1TdkhBMjvBXhsytSLxixyu0e2j0xqoVSCNE6A+RJ0AaoeoGVATolKZSJ8xbR81IA3YPsqQPsGQPv4dXzKkv/mUfvX3hfTQ4Bx6cGiRDYYelCfdR3lCHbuskIoAatySkpiGWuLFnpuInAXL7rUhxY5I8Y18bNh7w4/TtX8/5RjQ0Hhy3eDpZAINwNMA1KgOqRlRBelS/0T6O4b0SSuks+mK+z6jXzw3mx4YkKVOC3j/IIYvVh1aTI/wYPH5pmIqxSbUuCQlMZXtoXZvlAIs3iwRSbB/bOHTZuKfMn4zf7HHYar50gkbPO0AtUG0CqAWRGMKKNe3XVQQNUMq0yhD+pS+o5FAWmUiZUjvn04/+/039Js+5xV09w0q4ObHsHl0/7BSemhUBc3bWcTPASbUWCclMQ12KASWeBEjwZZ6sd00McktLKcn2h7SdkqK+/KtDZ62y7dmPA1AjRqQGku6+rIuI1rDt6ORH9Jqj8+har+dzf2WrnjgC6r5+Bd0T/dTPJEypINjDanRPHpgRAU9PKqYVh8upQqcJSmmSUlMg+18hLPdIEbktWD3GpHDqZDE5PSlErq70T665m8HbfD0GlA7RK2A2iFqBtRAlAE1DnkxENWXdQ1Iq/1uIVV7cj5Ve4IhVXvsapBe+dAMqvHop1S/81F6MK6Q6h2YRw+OInp6XAltP1GsjgVGYhNgiqRlgh2DDEwTm/0ni+im1+Sj2va6x9OT5Vs7QA1EjUnUjKgB6WINUp5Gqz1pQDovANKrHv6Srn5wGtVts48eGl5KsqetLXixLoP60Bii5yYV0ZFL+Ny2WCUlMcUbJRIueI0kb9bvzaOfvbSDrnlul46mBdGEA2pC1LeDkX8a1XYy0pZ1qz25gCvTKEOqlna/pWqPzaSrHvmKrrpvKt3RfCc9NKyE7pdtpAMFtgR1AIM6lujfHxXQuRyAGosAUyQtg9dI8kZWGuetu0zXPL+Tavxlmw5lCEAD8LQD1IqnBVBHeJprQlROB/iUnIBBypD+Tt9bNwDSuQzpdz5Ir370a/rRvZOp1nsbGdLixENqdEA+PTyOqPGMYsoprNCfDcSrAFMkLYPXSHJHdob5aMF5BnUPqR2QvAZUIeoUUGMKNRCV8+kKohZIjcNe1PZRhlS2jz7OkP7WBOljX9MV906hm15fpY4jvW9QIf2GIUumPjSeqP2sAsorBqheBpgiaRm8RpI/clKHoV+comv+ekBb6g2JJzcsnk4BNePpb/Wn5WPSDEgNQI3qS7u+7aPWifQb7tf0/xpMoev/+QM9OIQnwcEFjFde8nWQBuqgRcVUWIIdkrwKMEXSMniNpEbkpA7tJsg5fA8ymDaIegaoHaKCp1FBlAGVmiFVy7qCqJyIIRikMzVI75lK//fCXLp/QDbdP5gn0gEMV7KWJ2ZZ8p2wooCKywCqFwGmGRY5qYWcJUr2iJbHK1aVPavlMlEnl5fbxmskNVLKb+ZvDjhI17zAE2rMlm+1+vEMBqkBqFFtWVfOaKQgfVx2NNKXdh9jSB/VJtIf/eZj+t8/fkP39bukLe3aAZZkvW9wMT00iujLzSU4S5IHAaYZFAE01KeqxKqJOGQJr5HUSkl5JT3XaR9d89zeqngqQKVeA2pZ0v2dGVL9JAw8jVZ/wtg+auyxK4e+zGJENUiv+M00+ulT0+neHmd4Ii1iqPKrwJWczaX7hpTRfUNLacn+YrXsjkQfYJohCXZsbrwab1DxGkm9XM4rpUeb7mRQd1vQNNcJoOHwNGpezjUgFUT1ZV1G1A+pLOvqkD7GkD76tQbpfZ/QNY9No3u6ntAglZ18bOFKvsrhMnf2zKG/fsb/X6wqo8NZ5WpPayS6ANMMSKgPBohn47nki9dIaub4uWK6879b6Zo/b9fh9AhQH6ICqIEo42n0SQHUv21Unaj+iflc0x67jwmkMzVIH/mKrnzgU6r+wBSq1/4gPTC0mO7lifReBioVKjsi3dkrl54eV0htl1RQn+1EAzaU08nsUv2ZQCINMM2AhPqMz3hWpuN4Ba+R1M2uwwV0wz+20DV/2qJDaYenk+VbM57mmiCVadSHqAGpLO0KpPMYUdP2UROkVz34OV1932Sq23K3OnG9grQ/Q5UClam0bs9c+u3IAmq1qJI6r6qk9ssrqdcOoiEbS+liAQ6ZiSbANAOS6CVeo/F8fvAaSe2s3JZNP/3LBrrmDxsYTjn20wtAzcu5UvM0qkOqlnYZ0sdNE6ks7T5qgvSh6XRFg4lUq+FmemCIto3UDq1kbT2G9OGh+dR8YbmCtMMKvQxq711E47aWUU4hzpIUaYBpBiTY4xXvxvP5wWsktSPb7r5deYFqPLueu9YEpwXPoIDqePoANRBlPH3bRaUCaCCi1avsscuQPsKQyrl2H55OP7p7At361hp6QB3+klqQ3tU7V50N6f3vGdLVRB1XmjDV22c30YfbiqkQHyweUYBpBiTY4xXvxvP5wWsk9VPBok6afYpq/HErVX9mlQtAzRVI9Un0CakJ0id0SH87hxEVSGVHI4H0K+4MxvQLhnQi3fDvJfTAIDmbUIEtWMna+n1y6Z5+efTOt2XUaRUpOGV5t0pXkJpQZ+wtxTGoEQSYZkCCPV7xbjyfH7xG0iNyuEbfj49SjT9tY0R5Kg0GqA/PIIAG7GBkRtSYSOdRdbV9VCCVHY3ME6kB6ST61Yvz6P7+uTyRFtK9DFOq9G6GtD5Ppa9/XUqdVoaAVG8Hxla2oc7eX8SgYhuqkwDTDEiwxyvejefzg9dI+qSU38xbjjrAE+r2QEBDTqBcH6BmSBlR6eOM6OP+ZV0NUmOPXZlIvwmA9P/Vn0S/+PNMuq/fZZ5IC9WElwoVSBv00XY4+vf0EoZUW8q1A9TaTmuIum8lWnq0lErLMaGGCzDNgAR7vOLdeD4/eI2kV0rKKunVHru0Jd9geEptATUhKpOoQjQQ0uoGpI8ypI8wpA9/pRCVXtFgMv38mS/p3l4X6N6BRYxUfhW0krl39MihF6cVK0Sl7RhKp+28jqjzeqI1x0twUocwAaYZkGCPV7wbz+cHr5H0S0FxOf2h9Taq8YctDCdDqQC14ik1ANVrLOn6plELpGr7qAlS2UaqJtLpdMU9U+jaRz+mu7uepN8MYkj7pxik3XPpL5OLqN0yhlSA5MuIurSSujCmXddU0K5zZTipQ4gA0wxIsMcr3o3n84PXSHrmwuUSuv+djVTj9xt1LO3wNKojatRA9LdSQXSODqlsHzVNpA/JRMqQ3juFaj40me7qdJQhLbbFKlkry7sC6bPjC6kNgxgVpHrb8s933UTUY20ZHbxYyqBCVLsA0xRMpCerf2y8/eMV78rvEq/IbSX6d0BikyOnC6n2v9czqOsYT1m+NeNpriCqT6IKUJlE/dNo9So7Gn2pQfrgdLrqNx9TtXsnUt3W+9QJ4RVSfXNTovf2y2VIc+jJUQXUcnEltV/BIAqKLiogd9tC1Hd9OZ3KxVnx7QJMUyhLDmkwJsOpAaMpMEW8ypb9OfTL51dRjadX6WiaATUhqiA1IWqGVE2jFkgf+pyuum8aXd1gPNVusp3uZ0hlyrNDKxl7L/dOhvTRoXnU/Idy6rDSHsdoqkDdRjRsUyldyMNJHawBpikQmUTlRPGpiqhRYIp4mcUbL9KPf7+Cqj+13I9owF66xpKuAam2rFv9UfP2UctEev8n9KN6Y6jWu+vpftlGmmKQ1u2ZQw8MzKPG88qow4oKaresgtou9bbdtxON21xMecU4ZMYcYJoC+c8X9vc31QpMES8jm+5m/HCaajzFoD65OBBRA9LHZBKVMqSMaPVHje2j2kR69UNfcqfT1Q/yRPrApwrSm/+7TJ2QQfbabcBApUIFU4H0nn659O7sMn1pt4KnSe8rU6qAOnVrEc6SZAowTfIky3l1vSgwRbyOHK4x9qujVOOZNTyZLmREjSVdrg9SbVlXg3QmXc0T6dUPf8WIztAh/YwrkI6l6/+xgO7rzzgJpH0YqhSpnG+3fq9cemNmaUwhNdpuOf+/tI3oy72lVISzJKkA0yROsnx0mlcFpkgsUlbOk9LE/VTjaQZVJlJjEtX31lXLuo8wpDyNXv0wT6M2kP6/euPol8/Ppnv7ZtO9/QpswUrW3tUrh+r2yKFXvyhRJ1uINaRG2/E/9LtuIZp7sEQdB5zpAaZJnHSaSqXAFIlVSkor6P1BO6nGU6t9kFZ79DuuIKot6wZA+iBD+gBD+sAn9P/qjqOf/34G3dvnEt3bv9AWrGTt3b1z6Y5uOfSPT4rV9lFBrnW8uoRBXUXUaQPRsqOl6h81mRxgmsRJlkNavCowRWKZopJy+kfHTVT9dysZUdnJyIBUlnWN7aMmSB/8hH5UfwL99Mlp1KD7WbpngEAqp9+zhysZW6dbNr0wuUghKjsHCXBx7eIK6rCaqP3Kclp/ojijz5IETJM0W07Z30dzr++n7eUr9ztUcZxpYn4HJP7JySulJxvxdPrkMjWNVnuYIX1IplGG9MEvAiC9ov4kqvnwB1S/4zG6R02kDClPeilRgbRrDv1xYqFCLSGQGmVQO66Tj3MrzeizJAHTJI2TJV6n9zfY4xXvxvP5yYTXCGKf0xcK6O5XllH1x38wTaMC6ed09f2fqKXdKxp8QNXvHU912xxiSIvoboZUlkxToQJp7S459NSYAmrBkLVZVkGtGLWEln8PWe7tvqaUDl0q1Z+JzAowTdI4mSblJA5OEuzxinfj+fxkwmsECZ59R3Lopue+p2qPzdWnUR1S7pX3TKGr7x5DdZruonsHlKQcpDKRPjY8n5otTBJI9bYUUDcR9WNQz2TgWZKAaRLmSJb9/TO33jD9mx0k2OMV78bz+Un31wgSPmu3X6CfPfmtttR7/6fcaXTlvVPoynqj6PaGmxnSIrW0a4dWMtaA9MHBedT4+3K1165MhMlUAbXLZqLhm8roUkFmndQBmCZhvFzilQR7vOLdeD4/6f4aQcJHTsg+Z/lxqiGfAiNnN/rNFPrRnSPoljdW0739UwtS+XDvO7vlqFMbvvtdmdrhyJgGk62tllRSj91Ea85k1sZTYJqEeW6q/f0zV6ZXpwn2eMW78Xx+0v01gjhLRUUlTZ21n6o98AVDOppufHkx3du3gBr0LqC7ezFSKdK6DKlcvjmzlCGtTFpIVRdVUMcNRJ/tBqZJn3R+o5QTNdjdN3MjWeKVBHu84t14Pj/p/BpBIosc/zhyyjq66Z8L6Z7ecuhLfhWskrn1uudwc+m1LxnSZUkOqd62q4im7ASmSZ90fqP0eolXEuzxinfj+fyk82sEiTwr9+bQw0MKqUHfQqrfKydlelePHLqzazb987MSar2kUkHVgie/ZG8bfh+bvB2YJn3S+Y3S6yVeiRyLanc98a6csD9eAaaIkb1niukPo4vonv4lDJScw9YermTrXT1zqE6Xy/TXqcW+adQOrmSsmkx3ANOkT7q+UTo5F69gG2mCPV7xrqAerwBTRHLiYhE9P7aAGgwo05BioFKltTtfpj9PKlLbIGVPWTu0krHNF1RQjz1E3x8FpkmfdH2j/Gan/f0yV5aBI42T7bDxqNy/eAWYIrmFZfTvSfkMaTnjxBOpDVjJ2ts7ZdMz/I+A5j9okDYXpFKgcuxr+3VErZeV0KHLmfUB4sA0iRJuiVem1kiXeI0keqk3monaTYBpZqe0tIwaflpAvxlcyTilDqR38/QskD4xIp+a8oQnS7sCaipUnURiNUO6imjZwTwqLcNxpkmfdHyjjNUSrzmJAlXO5iT3L54BppmdNjNy6IGhRHf3zrNFKxkrkNbunE2PDMmjxvPKUwpSWdptvZyow3qi+fvyqbAEZ0BKiaTjG6WTJV4vlkllspWlYnmsYlnZ2UjwlhP2JyLyO9g9hvL3SHqnz5wcenA4T6S98tVOPKlQgbROl2y6r1+uOilDyyUaUs1SoTyRtlpK1Gkr0Rdbcyi3KLOWd40A0ySJkyXeeE93qRxgmpkZuySXHhmpQ9qDoUqFMqZ1eCJtwKC+OUuHVLY/2sGVhG2+qJI67yCatq2AsvIzE1IJME2CxGOJN9MCTDMv09fl029HVVD93gX2aCVp7+CJ9K7uOfSfL0up5eLKlJpImy2spC4M6dh1uXQ+L3MhlQDTJEi8lngzKcA0szJ/ex49oSAtsgUrWSsnZBBMX/68REEqSDVlpFKiCyqo8zaiYWsL6ExOZkMqAaZJECzxeh9gmjlZf6iQnmZI7+5TwkDlVgErWVuXp1FZ3n3x42Jqvlib9mzRSsI2mV9BHbcS9VyeRyeyAakEmCY4TpZ443myg3QJMM2MHDhbTM+OLKC7+5ZpSDFQqdLaHS/Tc5OLfHvE2qGVjBVIO2wm6rq8iPafLdCfCSQlMZUPxZY3RWudflh2MgVLvLGJvB7sHkv5eyQ9cuZyCb04oZAhLad6KQZprQ6X6dnxhQonmUibCFIp0MYMadv1RK1+KKCdZ4qpoiKzjiUNlZTENJ0Sbon3+n76NyIRBZimd/KLyujVD/Po7v6V6hNVtE9WSf7K9FyrQzY9ydO0wKQgXVCeEn3/+3J1QoZmi0pozZE8Ki0HpOYA0wRGlngFS7s3faNY4o0uwDR9U1HBb+yf59M9AxnSHnm2aCVjFaQd5aQM+dRoXjlDao9WMrYxQ9pyOVHLlUSLD+ZTcYad3chJgGkC42SJNxWXrpMhwDR90+HLbLpvcCXjxJB2y06J3tUjWy3tPjAgl96ZU+aDtHEqlCFtvqSS2m4gmrkjm/KLscORXYBpAhPu9H6Rfgg44g8wTc8MmZ9HDwypSClIpbKz0T295aQMpdRsUQpBOp8n6MVE7TcTfbGjgHIKAWmwANMEJtwSL974ow8wTb98sDSHHh0uE2m+LVjJ2jqdLlP97tn0n68YUmMiZaRSoU3mV1KHrUQT1+fQxfxS/ZlA7AJMExQnS7yJOq9tOgSYple+2VxAj43gibRXgS1Yydo6nS/TnXJShuklas9dmfbeZ6RSot9XKEhHrc+ns7mANFyAaYIS7M3eKJZ43QWYpk8W78qjJ0ZWUL1eRVSXgUqV3tHlsvqA75emFWuHlaQQpI2+L6f2W4j6rsihUzi7kaMA0wQFS7yxDTBNj2w9Vky/G15Cd/UuobpdGakUqUyjssPR85OLGNLy1IJ0Xjm120TUfUUhHcuwD/h2E2CagMjyrd0bvbnRfgg4ogWYpn4OnS2iP44qYEjLbMFK5t7WLov+MKFQ2/bIkMqklwptOLeM2qwjav1DHu05g7MbRZKUx1SO1ZTtj/H4jE6vzkQk12X3Rm9UPkwbcZdgj7H8PZL8uZBbSi+NzaO7+pRT3W45tmAla29td5meGpWvcBJMrWAla9+bW04tVxO1WFREm08UUDlOyhBRUhpTATTceW1jUbldN8ESb+wDTFM3BUWl9MbkPKrftyKlIJUdjm5jSB8blk/vzUstSBsypM35fa3JD2W0/GAulZaV688G4jQpi6mAZvdmGa9O3qj/IhEGS7zxCTBN0VRWUvPPcumefpWMUy7V7cJQpUDrMaYC6YMD8+jt78rU0m5DQSoVypA2XcIT6UqihfsLqKgEkEaTlMTUySetxLpy+9GgF+xN3ig+BNybANPUTLeZufSbgZU86eWpnXhSoYJpLYb03t459MasMnrfgJSn01Rok0VErdYRfbU9B2c3cpGUxNTJMZrxaDTLveGWeL3aLpvpCYZptCsKSOwz7Ptcun+wLO3m26KVrJW9duv3yCE5KYNvIrVBKxnbeAFRG/5/YtrWArpcgGNJ3SQlMU30Eq/RSKeccEu8+BBw7xLs03jwj5XkzEcr8+nhoTyRdi+wBStZeztDemfXbPr39FKeSCsUpLK9NBXacF4FtdlENHpNDl3IA6Ruk5KYhlsqjVcjxTTc740lXu8SbAUA26OTL7M359NvhzOkPQptwUrWyvl263TKpr9/UpJykL47V4N06Np8OpMDSL0IMHXRSDHFEm98EmwzAM4qlXxZua+QnhxewZAW052dGakU6R2dLtPt7S/TC1OK6P35DKkNWMnad+eUU+sNRD2X5dCJy4DUqwBTF40EUyzxxi/Blngj/ccPEttsP1ZIzwwrono9y3SkLqdEBVI5KcOfJhb6to++Ozc1+s53ZdRyLVGnJQV08DzecLxM2mIqJz6Q73NTuQ676zYq3+M08r1212EUS7zeJNhUGu3e10hscvRCMf1lVCHV61WmzmF7hyCVIr217SV6Zox2LGlKQTq7jJqvJmo6P592nS3WnwnEq6QtppFAFyzhbieS2wgHM5Z43UewDHbIlHx2LJIcycoroX9OyGNIKxin7CpYJXNvaZtFjw/Po3fmMKQ8ldqhlYx957tyaracqPH8YlpzOIfKcHYjzwNMQ8QrTLHEG/sIpMG2SWMqTZ4UlZTR21N1SLvkqCXTVKgs797SJoseGpRLb/GEJ5C+I0ilQN9mSBsvIWq0qJKWHy6kEpzdKCYBpiHiFabhDuXB1OQuSw6F3rnL7ekfEe/SenoO1e9TyTjl2qKVjBVIb2VI7+ubS6/PLFPLuzKZpkIF0kY/8HsM/z8wa0cOFeLsRjELMA2RcLfjdLtsuL14BQMk8sjjFmxnI6P4h0rypPe3uXRv/wq6s4tAmlUFrWTtbW2z6O4eOfTaV/pEaoNWUlYgnU/UfA3RF9vyKacQe+7GMsA0RJzcjtvG43ANQceAPdUrOMo/YoJtGzX3P19g+TxZMvqHXLp/IEPaNZ+BSh1Ia7XLonpdL9PLX5QypBXasilDlQp9b14ltVhPNGFtNl3KB6SxDjANESe347Ze/J7hEo/7kWwVdAFpcuTzdYX08OAKuqNrAdVhoFKhBqRy+fdPi+m9FIP07TkV1GID/yNmfSGdywWk8QgwDZFYIxSvHWMyCVN5TLGNNHkyd0suPTa0kiEtpDpyxqAU6e3ts9RJGf46lSGdx5AKUN+lSGeXq4m0z7IcOp2DE9fHK8A0RGKNkBe/o5NkAqaCqCzrYq/d5Mnag0X05NAyurNbiS1YydraHbTtpH+aVEhy2j2Z9N5ipFKhb35bRs3WEnVZWkBHszCRxjPANERiiVA8t+elM6ayzVnuHxBNruw6XkC/H1pId3YvswUrWSuQ3tI6i34/roDemVvGE2kZI5UaFUibriZqNT+P9p4t1J8JJF4BpiESK4TivT0vnXZAksoyrtwnbBNNzpzkiej5UXl0Z49yW7CSube0yqInRuQrnARTK1jJ2je/LaXG/P9Fsx+KacvJAqqowEkZ4h1gGiJObieSyl6oONMRks65nF9Cr0zMp7o9KhinbKrDk14q9A6uQPrI4Fx6gyc8gfTN2anRNxjSRkuI3p5bRKsPF1A5IE1IgGmIhLsdp8eZyiQlZ0FCkHROcVkFvTs5mydSgTTHFq2krD6RPtAvl/47szS1IJ1VSu/xe8y73AV786m4FCdlSFSAaYiEux0vbgNB0iEVlUT95hTQXb0F0ly17TEVKpDezJDe0yuHXv2qlN6eY49WUnZWGb37fSW9v4zoq+25VFAMSBMZYBoiwBRBnKXDl/l0b3fGqXM+I5WVGpWJtPUluqtbNr38RQm9rU+kb6RI35lXSY1XE328KZeycXajhAeYhggwRRBnqd+jmIHKodrtGalUKGN6K0MqZ2OSkzK8Pbc8dSD9tozemlNBTdcQjV2bSxfzAGkyJG0xdbo9M1TlOuyu26h8D4IgRHU68URqh1aS9tY2l+j2dpforx8VqeNIFaSMVGq0XEE6ZFU+nc0BpMmStMU0HgWmCKKlTheZTLNt4Uq21mp7iW5jTP/8QSFPeOVq2nudkUqJziqjJquJui/KphOXAWkyBZi6KDBFEC2tPy+gOzoyVkkO6u3tsuiWVpfo9+ML6M05POWlEKT/nVlG768i6vBDPh2+WKI/8kiyBJi6KDBFEC1ns8up4dQ8qtuXFFiyhHp7+yQrT6Q3tbhIT47M921/tEMr6crTqIJ0JVGz7/Npz1mcrSQZA0xdFJgiiD8nLlbQvyYUUd1+RHd0J6rdsSBpejv3tnaF9OSYCnprPtE7/P+uXL6d5H3re+13bbpOzm5UQhuPFVBlZaX+iCPJlJTEVM4iZIdbvDt5o/4LIQiicvRCOQ1eUE7PDJWT22snbrA7vtPaKidS8Li3tb1MD/a7TK99VUhvziyg/36dGn3tmwJq+kM5jd1WSXv5Hyvl5Ti7UbImJTGVc7La4RbPxuvj0xAk1ZJdUEH7z1bQ2kOltHJfEa3an/iu3FdMW44X0+6zRbTzdOp0O/dodgVlYWU36ZOSmEpkKrRDLl6Vk9UjCIIgiCRlMZUkYtspPnwaQRAEsSalMZXIkq9MqQJrrIsT1iMIgiB2SXlMEQRBECTRAaYIgiAI4jLAFEEQBEFcBpgiCIIgiMsAUwRBEARxGWCKIAiCIC4DTBEEQRDEZYApgiAIgrgMMEUQBEEQlwGmCIIgCOIywBRBEARBXAaYIgiCIIjLAFMEQRAEcRlgiiAIgiAuA0wRBEEQxGWAKYIgCIK4DDBFEARBEJcBpgiCIAjiMsAUQRAEQVwGmCIIgiCIywBTBEEQBHEZYIogCIIgLgNMEQRBEMRlgCmCIAiCuAwwRRAEQRCXAaYIgiAI4jLAFEEQBEFcBpgiCIIgiMsAUwRBEARxGWCKIAiCIC4DTBEEQRDEZYApgiAIgrgMMEUQBEEQlwGmCIIgCOIywBRBEARBXAaYIgiCIIjLAFMEQRAEcRlgiiAIgiAuA0wRBEEQxGWAKYIgCIK4DDBFEARBEJcBpgiCIAjiMsAUQRAkREpyi+nwt3tpfc9ltKbzIto6fC1d2nlO/6qzVBSXUcHO85T91X66MGUHZX26m/KWnaCyrCL9O5BUDzBFEAQJktwT2bTkndk0795PaGaDyfRNgw/p23um0qxHptKWMWv07wqd0twiujj3AJWM2U/5I3fRxSGb6fKwbVQ29gDlTN1D+Qcv6t+JpHKAKYIgiE0KzubRqpYLaA5D+lG9UdyR3BE0pd4w+uyusQzqR7Rl4jr9u+1Tml9MF+cfoAJG9MzAdXSs30o63m8VHe+7ik70XU35w3dS9rS9lH80S/8JJFWTMZgW5hTSwXUHacPXG2j5lOWq80fOR1Os8rzJcyjPJYLEKkVZhbSh93L67p6PFaJTGVHplHrDaUrd4fRh3WH06V1jaNaTH9GuL7boPxWY8uIyylp2lHJHbKdzg9bTsT4MKSNq7ol+qylvBIP62T4qPJ2j/ySSiklrTAVQefMd8twQ6tygM7W6tRWaZp3caLJCFkG8Sml+CW0fu56+vecjmnbX6CqQTtYx/aDuUJpWbzTN+sM0Orhwr/7TWspLGdI1x+jS0C10YfBGOmoDqfQY92S/NZQ3bCdd/Gw3FZ7P1a8BSbWkJaaC6KzeswBohlWecwRxE5km907fQV/e/QF9Wn+MAlSDlBsA6TCaWHcwTbhzkPr6zBc+puMbjqjrqKiooMsbT9LZgevp0pAtDOkKW0hV+zCovVfSKQY1R0D9aj+V5har60FSK2mHqSz/9X68t+2bLZr+lX9AyTIwgkSayvJKOrrwIH1ef5yqAanUPI1KJ+mQjrtzAI25oz99UG8YffXPj+jC4fNUdCiLzg/fTNlDtwWHlBE1eowrk+up/uv4Z7bTxVn7qCQfoKZa0gpTmUzs3mDRzCuWfpFIc3bDSfryoQ9oxt0TaTLjaEykBqQfKkiH6JAO9kE66o6+NLJ2Hxpaqyd98feJdHHiNp4yt9tDakHU3KM8oZ7pz9PsoC10ce5BKisp038zJBWSNph+3u5z2zdVNHM79pWx+qsDQUIna99Fmv3HT+jrBh8qSNWyrg7pZB3SSQypLO2O54l0rA7p6Dv60Yjavan/zZ1p0sOD6HC35ZQ1zGZpl7G0AzSgjOnRXivoXP8NdHHQJspafJjKy8v13xBJ9qQFprKTkd2bqbWyBChvsDLBSs17iaKpUXne5Dm0e37tKv/IQpBQyTuZTfP/9SXNvGcKQzpcLe9KBVEN0mEM6VCGdIi+tDvQN5FqkHahsff1p10dFtL5oRsZRtPORoxkSER7S1cGVEC9MHAjXRiymbJWHNN/SyTZk/KY7ly40/ZN1Fx585Xvkx2TkPSJPKeyN6/dc26ufB+C2KXgfD4tbTJP7bmrTaR+SI0djTRI/ROpTKMj7+hDw+v0UpCOatCHtraeRxeG65AyktEgau6Rnivo0sDNdGn4Nrq87rj+2yLJnJTGVHAMtceufE2mViS9Izsc2T3/RuV1kHUSB8UjgSm6XEhreyyl2fd8rG8f1SHlGpDKNlIrpGoirdObBtzclYbX60Ubms2mi8M2MZ5+SG0BlYZB9Fgvf4/0XE5Zg7bSpdEM6pZT+m+NJGtSGlNZ9rN785TKHr2n9uAFmCkRLEPtxY3lXsQc2Vt266i16tSAH901UgFq1D+RDqEJCtKB+s5GDGkdWdrtQwNv6UZD7uhBqxt+rUPqHaJGj3JlQs0evJ2yxu+k3N3n9d8eScakLKahplL5e0CaeRFQQ61UYDpFJGVyLOnn2+mrBh/QtPqjbSDVdjYyIFU7G9XpT6NNkA6q3ZWWvvkFXRi2UW0btQVUGiWivvZkUHusoJzBOyhr0i7K3X9BvxdIsiVlMQ210xGOM8zchNqGjiV/pLK8Qh1L+mn98dyx9GEVSOXQFx3SOwbR2Ds0SI2JdNCt3WhArS604NVP1M5Gx/uuDoIowxiqOpyhEDVXJtTcITspa8ouyj9ySb83SDIlZTENtuMJDodAgr02ZGpFMjiVROc2naLpD0yk6XdPZEiHaYjypXEyBtljd+Kdg2mCDulohnSkDung27pT/1s703f/mEJnh2xQ59UNBNR7RP1doZrPoGZ/spcKTmXrdwpJlqQkprLEa/dmKcWem4icBcvutSHFHt2Zm8sHLtKsZz6mLxtMog/qDVWIGpBOupMnUq5AKhPpuDsGanvtCqR1NEj73dKZvn5hIp0ZvI5O9l8TV0SP9tB6jP8ub/AOuvTZHio8h/P4JlNSEtNgb5YyeeDNEpEE2xkJnzaTmck/k0ffvTSdvm4wORDSOwVSDdOJ3HFqIpXjSP2QDrmtB/W7uRNN/+NYOjVgraoGaBhEdTStjQZRc0/0XMWg7qRLM/ZRcVa+fg+RRCclMQ12KASWeBEjwZZ6sd0081J0qZAWvfetOimDgrSufgwpI6phKidjGOKbSAVS2dlopEBaqwf1YUg/fnqk2j56esA6ezjN1dEMCqjUFlApgxkEUaOHuy9nUFdTzsDtdP6rPVSciwEiGZKSmAbb+QifGoIYCXaeZjmcCsmclOQU08rOCxnSqT5EtR2NhukT6VB1nl05jlQgHStnNqojU6l2rt0+N3WiD387lA73WkFnBq7XcLQDVCpfs9RLRGWv3iPdtQqoJ3uvocsDttHF7w5QWVGJfo+RRAWYImmZYMcgA9PMiXwu6abhq2hmgyk0pe4IH6LGWY2MbaRyikBZ2h19xwAd0r409PZe1PfmzjThoYG0v+sSOjtovcIw0YiaK6Ce7rOOLvbbTJcWHKay0lL9niOJSEpiijdKJFzwGsnslBWV0a5PttBXd39IU+uNZEiH65AyolZIuWNkz12eSgXSYbV7qZ2NxtzXl/Z0WkjnBgeBVP7O0nggau6hbsvpbJ8NdLbXespaclR9liqSmABTJC2D10jmpqKsgg7P30+f3TWBPq43WiGqTaX6Z5EqSGU7qXyMmjGVaseSDmdI5Xy7Ixv0pm1tvqfzQzZUhVT+21JngEoZSreIdgvsoa7L6HyfjXRu4Ga6vPaE/igg8Q4wRdIyeI1kZiorKunUuuP06T3j6dO7xlWFlGtAamwnVZ8AI5DW6U0Db+1Gw+/qSZuaz1YnZZBPcPEMUQua1jqZRAMhXe7roa5L6VLfTXRu0EbK3oizvyUiwBRJy+A1kpm5tP8CzfjthzS9/gR1JiPfzkYBkBpTqexwpH8KDGMqe+4OvaMHrXj3S3WaQAWpjqa1yYKoaleth7ospax+W+jcsK2Uu/Oc/ogg8QowRdIyeI1kXvLP5tDM56fRl3dPUpBq20jtMNWm0rG+zyXtR8Nq96ZBt3Wnz54do3Y2OtF7dRIiKq2K6GFTD3VZRtn9t9P50dsodx/O4xvPAFMkLYPXSGalOKeY5r7+FX3VYLJC0wyphukQ/cO9BVJjW6l/p6MhtXrS4NrdaelbX9CFIZsUhpEjykjGcRI1I2qugJrTfwedH7ed8g/jPL7xCjBF0jJ4jWRO5BCYpW3m0TdVIDVtJ9Uh9W0rVVPpADWVjmBMB9XqRkPu7EbrGs+k84M3qNP2JR2iOqR2gPraReuhzssod8BOuvjhLio4jvP4xiPAFEnL4DWSGSkvKqP1g1ZoZzeyAGpulamUMVV78Oof9D2oVnfqX7sLLdMnU/mUFs8QtUPTWgeIBoVUB9Suef130oWpu3Fi/DgEmCJpGbxG0j8VJeW0Y8om+rLBh+rTX6yAmiuYCqQaptpnlKolXsZU9uIdfHt36nNbJ5r2h5F0drCc6WiVBU5zGckwiDqaQqUxQvRQp2WqR7uvpIJBO+ni5/uo6DzO4xvLAFMkLYPXSHpHjiU9OHcPfX73eJpSb6QtoNKJeif4MNWWeM2YDmNMh9TuSX1v6Uy9arenVe9/TReHbFYgphyinZfRYUb0eP9VdGb8Ojr74Xq6wP/gKPvkAF2ef4iKs3Ee31gFmCJpGbxG0jfyAd8n1x2jjxuMpo/vGq2mzmCIytfUEq982LdpiXcMYzpK3/lI9uQdUrsHDazVlbrd1Ib63NWetraZSxcGb2QclycPolIbQI0a0+jJYavp/EcbVc9N3UBnuVmfbKGKrw9R3uqjVFaA8/jGIsAUScvgNZKmqSS6uPc8ffrIBPqk/tgASP2A+hE1YzrOjKl+Hl7Z+Wiogent3ajvbZ2o469bUL8GHWlXh4V0bsAGRpBBteBpNBkQlfogHWqCdMoGOjdZq0yoWR9tpfIvD1LOWga1EKB6HWCKpGXwGknP5J/NpRl/nELT609US7ehANUQ1TrewNT3eaV+TGUyHVy7p8K0P0+nvW7tSG2vb0oD7utM+7ssoXP91zOIgaA6QtQtoFIbOH2VJV2ugrTjUjoxeJUC9PxUhlRH1Icp9wyDennaNiqevo/yNp+k8pIy/VFFvAgwRdIyeI2kX4pzimjOqzPoi7snmSANDqiqfsYjY3upBqlxWIy2zDtcPm6tdi8adHt36n97F+pbqxP1uKUdtb7+fRr6cHe11Hum/zo6nGSIGpAeZEiPD2BIGUwzpAKorx9K19PpD9ZS7ifbKe+THZS/4wxVlOPE+F4FmCJpGbxG0iulRaX0Q4vv1J67smTrFFHz4TDaiRrkFIIaptoJG/rpmMpJG3rQgNu7Kkz73NaRut7chlr8qiGNfLw3He+1ik71WUuH7fA06hZROzittULaYRkd67dSYSmQ2gFqrYCa/+lOyp7GqO45S5WVlfqjjLgJMEXSMniNpE/KSytoZZ/F9NU9k0MDKtUBNRA1amBqgCrTqXkyHVanl1rqHcDTaT+eTnvX6kg9b+tAnW9uRc1/9R5NeGaAwlQ+kDvhiOo92GEpHe27ks58wJOoAWkQQAP6AYM6cS0VfraHcj/fRYWHLuqPNOImwBRJy+A1kh6pLKugLZPW0hcNPqBJ9fzLulUBlQYCaq2CVNU/mRpnQBoqx5rW7kUDa8tSr0ynnalXrQ7U47Z21PGmFtTs1+/SlD8PpTP91tOJXqsZyfgjaoX0SO8VdGbSeg1SOzTNZUCtFVBLPt9HOV/spIKjANVtgCmSlsFrJPUjH6e2/9ud9Nnd4+nDesMDAY0IUa2CqFE/pv15MpVjTfsoUAep6bQbT6ed9em0PXVnUNvf2FyB+tnfRtO5/hvoeI9V9oBKGcpYIaogbc+Q9mBIx6/TDn2xw1NqA2hAGWIBtWz6AcqZsYeKTuXojzwSTYApkpbBayS1I5CeWHWEptYfSVPuGmkLqDNETcu7BqR6Rxs7IfF0qi31ynTaQ59Ou1FfHdQeOqhtb2hKzW98l77+5wS6MGAjHVNLvIGI2uJp1A5Na3U87RD1Qcq3dXrsWntI7dA0lwG19vTEdVQ54xDlfbuPis/n6c8AEmmAKZKWwWskhaMfS/rxg+Poo7tGM4yBiNrBadSYQs2IGjUQtcN0xB0apkP1bacDa8t02pX6MKg9a3VQmHa9tQ21/nVjanHTezTntSkK1KNeINpZGhpRbWejpXx9y+jUGBOkdmBaawOotWcYVPriEOV+t49KLhboTwQSSYBpglOYU0hZJ7P0/0K8CjBN3eSfzaPpz0ymafXHKSCjmULN1baTavVjOoBGG2dBUpj2peH6qQUHM6gDGdT+DKoxnarl3lvbUpdbWlPL6xtR61sa0Q9vfkoX+m+siqdROzjNdYioAal8tNqpkQzpFIbUDk1zbcCs0onWMqgzjlD+wsNUll2kPxuI0wDTBGXnwp005Lkhvt+99+O9acPXG/SvJj4CvDyes3rPUpepBn46vEYyMSV5xTTrH5/SZ/Un2KJpbqgp1Ayov9oyryBqVDA1g2psOx1cpycNqt3DtzNS79u05d6uDGpnBrX5rxpSu9sb04qGX9J5BvUQT4yeIaoDGgAp//3J4WsYUkbPDk+pHZjWVgHU3zP6JX15lHJ/OEQlOI9vRAGmCcjyKcttf3+pfC3Rkd+hc4POSfm7OQ0wTb2Ul5bTgvdnqrMb2eFp1OkUakY0YHnXBlT/dKov98pJHNRxp3KoTDfqI3v3MqjdGdRut7ZRh8w0u+5d6nhnc1rfdBad78egMni2eBq1IBoAqNSCqA/SjnKaQIZ0MmNnXdq1A9NaE5jWCqBnJgT23KSNPKEepbyVx6gsv1h/dpBwAaZxTihIjSYSrXC/X6qACkxTK3ImnqVdF6izG9kBKo1mCjUjaq6AOkogVdUx1U8vKDsjDTFOMaim027Ur1YXBrWTOva0221t1fbTjre0pMbXvUNd72pNW1rNpXN9NtiDKn9nqhNEpXJmI3V2o8GrtbMayTGkMQLU3NPc85M2UeX0w5S7ikHFeXwdBZjGMU4gNZqIJV+nv18qgApMUycVFZW0Ycwqmt5gktrJqCqgkSFqh6e55snUv8zLVZjKnr3acq8Gag+eULVjT9V0qu/d2+1WDdQON7Wg9697m3rd2452tVtIZ/us94Mql6Y6RVR6kKdRObvR8YGrGNH1qrZommtB06jCU2pB07bjtZ4et44uTtpMpZ/so9wNJ6i8GOfxDRdgGqcIQHZLp6EaT1AjgV6a7KAC0xRJJdGeL7fRJ3ePU5/8Et0UKrWH06gGqB9R2ZPXvzevvwam/kNl9OVeBlXt3WsCVbafdrm1NbW/qTk1uu4t6v9gJ9rfcQmd7rmWQVwaFaJSQfRgezlN4CqeRPWJ1A5PqQlNc6MBVOs6X0+NW0tZH2yloo/2UP7WM1RRWq4/aYhdgGkcIihGCqnReIAaKaRGkxlUYJr8kWNJjy49RFPuGkUf1B3OWEY+hTpDVAc0AFF/R6oKprLdVFvqHcYdKtOpAlXbGUlA7cug9pblXtPhMp0Z1HY3NlOgDn2sO0+ly+hUjzV0sLO245BTRGXbqFRB2melwtIWUhOa5noBqK88mUpPjV1DOR9up5zJ2yh3J4NahhPjBwswjXHcQGpU9vyNVaKF1GiyggpMkztycvXzu87S1PvH0OR6IxWOzgCV2sNpNNgUakXUX30qNTDlms+KJKCqMyP5TuYg5+7VQO3GoHZhUDsxqG1ubMqgvkmjf9eHjnVfRcd7rFbLtbZwmqsjakB6tNdKBV4ApCY0zY0FoNaeGrOG8qbupOwp26no4CWqlOUEpEqAaQxzcN1B15AalevyOm4hNZqMoALT5E7OyWz65ImJNJWnUsExPKLRT6H2iGrbSqss8xqYcgOmU3UyB9NyL4PaSz6qTQdVptNOt7Sk1jc0poa/epMmPjuQTvJ0eqzrKjpoB6jUhKiCtN1SOtJTP02gQGpC09x4ABrQsQzq6DVUNHUPXZ66gwoOX9KfRcQcYBqjeAmpUS9B9QpSo8kGKjBN3hTnFtOMv31EH981RgEZDlE7OI1GM4VaATXXgFQ7gYNsN9WqplN1Moce1N8Hqr79tFZ76npbW55OW1HHW1tSixvep0bXv0kf/2U4nekpoK4MiaiCVE4T2F1OExgc0ngDaq2AWvLxXro8bQcVncrWn03ECDCNQU7tOeU5pEa9ANVrSI0mE6jANDkjO7HMfnsGfVJ/nIIyGKDxmEKtHcE1IDWqLfUa06m23KvO3avOjtSFet+uT6e12lGX22S5l0HlCbX59Q3p/RvepOkvjqWzvdbT0S4rbBGVHmy/RJ304fTotVUgdTSFBuApZfw8AtTakwxq6bQDdPnz3VR0Nld/VhEJMPU4sYRUKtcttxFtYgWp0WQBFZgmX2Q76eKO8+jTuydY8PQjagenuV5OoVIBVKtpe6kBqV7BVAO1lzozkm86rW1a7lXHn8pybxvqwJi2v7kFNfnVO9T4xrdp5r8+UKAe6bTcAulSOiCQdl5Gp0asUZD68EwSQE+PqdqTjH7lJ4fo8ld7qTQLZ0kyAkw9TKwhNRotqLGG1GgijpG1BpgmX7Z9vJE+azCBZI9dM6DOptBYIOoH1A9pPx+i/vp3RJJtp4PMoOqHy/SspZ0dSQ6X6XRLKwa1BbW7WQ6ZeZua3vIuzXvtIwWqAGqcjEEgleXd4wNXq0NgwgIqTRCgAR0tS75rib44RaU7sf3UCDD1KPGC1GikoMq5deP5+yX6XL7ANLlybucZmvbMRPqg3ggfonZwmhsNoKEQtZtCzYiaayCqINUrmCpQ1YeI96T+vlMN6nv36tOp7N0rS72CaZubm9K7//c6tanTmFY3+ppO91inIdqBMW23hA7Lx6kxUApTOzylyQColBE1KpgWfLibshd4v2NkqgaYehBBTU5Ub/c7xbKRgBqvqdRootECpkmUykqa/uIUGl9P+4BuOziNxnsKrVrT9lITpKqy1KvOiiQncjBONWhMp9pyr0ynXWQ6lZM5qOm0KbW4oRG9c93rNOapvnSsy0o63Gm5mkilx/qutF/WTUJArb00fjPlfLdff5IRYOoyMoElAlKjTkGVT3+x+/lY9fN2n+u3nJgA0yRKJdEHdw1XE6kdoNIAQE2IhgLUqynUjKh1idfYXqptM9V3RFKYatOpdqgMT6cMaq9anU3bTlurbaftbmlOrW9uQu9d9yZ1b9CWtrWcRye6rVZTqUyncrrAs5P0qTQcoFI7NM21QdNcWzCttYGzSketo4vjNlM2MPUFmLpIoiE1Kr+DfC5qqMQbU7m9RAaYJlEYUztIkxVQVd9ZkPr6EDUv8/ox7aEw1c6MpH2QuHlHJMFUlnrl7Ejd6rehTU1n00kDU7W9lDGdyJhGO4HagGmtLZjm2mFpLeNp7cVxm+jybGBqBJhGGcErGSA1Gg5U+Zrdz8WqsTjJRCQBpkkUxnR83SEK1Hgu40qDAWqLqAlQ80SqTaUmTLlmTLXDZBjT23kyrdWRMW1PXW5rSx359ebD9Fdv04AHutCeNj+opV45QYP0eP+V2iEwExg+jwC1BdNaOzCttQH09Ki1vl4cuwmTqSnANIoITOYP9k6Wyu8UCtRgj5vXTfRUKgGmyRM5JGZZz/k0rsFgnkgF1HCIJm4KtSJqVKZTQVSraZupOkRGX+a1wVS2mzb/dSNqesO79PnzY+hUt7W+7aWC6dFeKxSQZwVTK5rW2sBp1BZMa+3AtDYMoKojtWaN20KXZu/Tn2UEmEaYZIXUqPxuoRLr5d5kgFQCTJMrxTnF9NVrn9LUu0brUAZH1A5Po5FNodLQU6gTRI36IFVnQjKm0qqYdmVMO9/Whjrc2pLa3NSM3r/uXRr6UE/a23YxHe+8yofpgbZL1BmRTg5fo02nyQqojqe5J0espoqPDlLBkhP6M4wA0wgikE5uNNn2tqOt7EDk9XJxokBNFkglwDT5cnrzSZpUfxiNrzu0CqDRIhoRoNIIAfXXBKk6ztSPad/bu1Hv27tQz9s7UfdaHdSpBWUHJJlKm/2qIQ34TVfa0eJ7Otl1jW9bqWrbpbS/jX4+XobzrOyEZINmQO3AtNYOTGujANToqZFr6MKYjVT+0QEq3ndRf3YRYOowXkMq12XeC1d2ZpI9YO2+N5qOfWWsfs328RrUcJDK/ZPnR75PLmN9HGoiXiNI6FRUVNC+ubvpQ/1TYpwB6gGiOqCRI2psI9UQNSqQSvszpn3VVNrFv8RbS1/ivaU1Nb++MfW+uxNtavIdne6+1g9pOznGVDvOdD9Pqwe4cojM2fHr6WyQadQWTXPtwLTWBaBGT41YS2dHraeKqYcoa/EhKssv1p9dBJg6iNeQhoLHS+TiBWo4SOUYV7sTRsTy1IPANElTQbTpwzU09a4xantpcEQjAzQUotEAatSMqBVSWd7VdjwSTLVz9HaVPXlva0Mtf92EetRrT+sazvJDakLU3P1tBNQldLz/KgWqWt61A9NaOzCt9QDQ0wyoVCA9PXIdVX58mC7M3UcluUX6k4pIgGmYxBNSI6k0oTqB1O7njMYKVGCavKksr6Rl/RbRR3eN9U2nyTKFSv07GgViOpA7wAdp96BTaetfN6Nud7SlFW/N0CG1R9RXhnR/awaV/yyHysgevfLpMckCqK/89/TREbowcw8VZeXrzyZiBJiGSCyWduU6nUQQtLuOaBorUN1CajQWoALT5E5FWQXNazlLTaiRAhrtFCp1AqiGqB9SQVS2k2rbSPXtpAGQdmJItam0zQ3NqVOt1rToP5+ZILUBVMqImiugHuS/PzFIB9UporZ4ShnECAENwNNU2UmqcuoRuvT1Xiq5CEjtAkyDRNDzckIMd9iKXbzca9hrUL2C1KjXoALT5E9pYQl9+do0mnzXaAVkOESrACp1gGggoKER1SD1A2pUIJX6J1LZe9e/05GcqKHdDS3U55nOe/ljOsWQqj12rYBKLYiau78Vg8o/d2LwGjozbr09nlJbPKWMokeAqg5fSyeGraHyKQfp3LRt+Ni1EAGmQZJoSCXyM16CGg5Ap6B6DalRL0EFpqmRgkv5NO1Pk2hivREKRyugtog6AFQaCaBGNUj9iAaH1PikGIG0PbW7UU5s35K+efEDOtFtDR2yQmoDZ5W20apA7bCUTg5lUMdaQI0ToEYF0tIP99Olj3ZQ/snL6phhxD7A1CZeQio73rjZc1VAtdt5J9q6BTVWkBr1ClRgmhqRN+esw5do0sMj1SEzGqgWPI06QDQQ0EgQDQ5p0G2kDKkcU9qeIW17c3Oa8dx4OtFlFR3qsCwqRH2YcvcJqB1NoLoBlIGMBFA/pKup6IO9dGbCJso9dF6eLP1ZQ+wCTC3xGlIvTqsnGNtdf7QN9zgFe3xjDalRL0CN5WsE8TaVFZV0atNxGld/MI2pO5iG2gAaLaJ2cBq12y7qQ5SrbR+1QCons5dtpDqkHW5qpU7MMO3ZkXSs8wo63JEhtQPTrjaImruv5SI62IlBZdg0UBnFGANq9MTQ1VQwcTddHLeVcvee4ydJf7KQoAGmpgS73mgqkO5cuFO/ZvcRlO1uJ9qGA0uOgZXHQ3aaEkTDfTKNV5AadQtqrF4jSGxSUV5B++bvpnH1htKoOwfGZQr1QxqIqAGpIOo7/EV9xJoGqbG02+Gm1tT6hmb0wVNDFaJHOi63R9NahjIUorIjktF9LRfToS7LGDieUGWZ1w5OowykG0CNykSaN34nnRu5kXJ3nQWkDgNM9QS7zmi74esN+jV7l3iD6jReQ2rUze8HTFMvcsjM5mkb6IN6I0kOk7EDVBoNolZA/ZD28gFqhlQ+p1TObCTbR9VxpOoTYfyQykkZWv26KY39bX+1w9DRjivs4TSXoQwKqNSEqLkC6mEG9fQIG1AZSC8APTVMq0ykOWO308VRW+jihmNUXlamPztIuABTTrJNVaEiSNvdZrR1+7vGClKj0f5+wDQ1U15STssGLaIP7xqtT6bRAyoNhqi0KqQaon5I5TSB2ueUBkLaRkE6/KHetLf1IjreaSXtt8NTykhGi6ivjOm+FovpSLflCtAzss3UDk1z7cC0VgfUD+kaujR6K+WN20HZ645TeSkgjSQZj6nXGITbruhFvNyuK412io41pEaj+f2AaeqmrKiM5rX9VoE6OApEQwEq1RA1INX21PXtaKRDqp1vV4PUvI20060ykTahQb/pTjtbzKcTnVfZQ8pIhkTUDk1rW/kr0+m+FovoSHcBVabTdZ4AalR2dLowcjMVTthD5xcfpJICnN0o0mQ0prJjj5d7yjr5kG6v4vXJ8SPd49jrxy5cI/39gGlqp7SwlL5841OaVG+kI0Cl4aZQo3aIGpAamGqQdlGHv/gglYn0hmbU9+7OtKXJHDrZZTXDqJ0KMFaImru35SLaK6D2XOEH1Q5Ma23wNFcgPTdiA5VOOkCXFh6k4rz4vIelWzIa01ScSo0EewyibaIfu3CN9Pfz6jWCJC6FF/Pp4+cm0YS6wxjLXlXwDAeo1Iyo2smoNkNqAjQYpD2NnY0Upu2o861t1M5GPet1oPUNv6VTVkgZylghKofJqPJ0KpjKhHq010oN1BFBQLVBM6BDtZ7knhm+gco/OEgX5xyg4ss4u1G0yWhMBT+764m20W7fiyZebzuVpeNI4vVjF66R/n7AND2SdfQSjX9sBI2pO0Th6ATRQED9iGqQ+g95MUPal6ttIzXttavObNSeIW2rJtIuddrRyre/olPd1vghZSjjgai5e5szqDylHu1jAtUOTGt1QM09M2wdVX54mC7O2kdFlwCpmwBTm+uJtvHENNFTdbwxjfT3A6bpETkG9fS2kzTy7kE08s6BtngaDYaoAGquGVJBVNvZyPj0F1nalXPtdqQut3WgTnLi+hubU6fbW9Pi/3xOp7vqkDKU8UZUqwbp3uY/8PcsUh/dpnZGssNTagOo1jWqlTyRZn21l4rO5emPOBJtMhpT2b5pdz3RVrYhxitenghfGunJJbx+7MI10t8PmKZPKsrKaf+ivTSq7kAafmc/R4DaIapBaj6G1Aypfq5dHdKuDKl8AkwbhrT9rS1o3r8/pjPd1rpH1ISmtU4QVdWXevc2+4F/bhEd77sqcDq1xdMoIzpkDZ0cspoqJh2gi59qpwlE3CejMZUEu65oG4/pNNFTqRGvH7tgjeb38/I1giQ+FaXltHX6JhpXdxgNuaNvxIhKzYgakBqYapB21j/9RT5KrR21vakFtbm5Gc186UM1kR5kLJMBUXMF1AN8/Sf6r9ZADQGo0RODV1PpxP2UNW0nFZzMxvl2PUpKYhoMk2hR8HrJMtzZgtwkWSA14vVjZ220vx8wTb+UF5fTypFLaUK9EY4BlRpLunaQ+idS2U7qh7TdTS2p1U3N6IvnxtPJLgxp26VVAU0goubuacITauslGqjDDVADAZWe1CEtmrCXzk3aSjkHcb5dL5OSmMpp+uzeKOXUd9HGSxTksJVYRO63l4ejuIXUSKxAdfP7Bfsc2licmQqJX0oKSmh+l9nqU2bs4DRqAGquD1KutrORgWln6l6rE3VVH+7NkN7Mr5UbmtHHz46iEx1X0qF2yyIDVGpC01yvAN3XXLab+runKU+o7RjUgQyqLPXqeJp7fPAqKhi/my5N2k45e3CaQK+TVpi63WbpJQpeT0Ay7cYTUjmuU+6DfJ9chjvO02tQ3UAqCXYcrpfnS0YSk+LcYvrqnc9ofL3hCslwiEr7cQVRA1Lfnrs6pNp20vbU4ZY2aocjOd/u0Q4rAiG1Q9NaE5zmeoYo14youQaoJwetVttOrZDmj91J50dtouztZwBpDJKSmIba+cXt5OElCl5tP403pPJ7291euPvj1WPnFtJg/9iSRnryByQ5k38xjz762wc0tu5QNW3aASoVRM2QGp9Haizv9lCYdlTbSjvd2kZtJx372ECF6GHG1BZMu5rgNNdLRK3TaJU21ZZ81YTaf5VvZ6QTQ1ZT7pgddH7EJrqw7hi2kcYoKYmpJNjkIR+m7TZenq7PLajyDwcvz3bkBFK7nzMaa1DdQioJtsTrxWsDSZ6oY1CfGKk+ZcYKqoGoH9NuGqRc33ZS9bmk2okZtOXdltT37i60o/l8OtZpFSO4yB5Oc01wmhuPSVS1mdEffN3TZCHtbfGD+vi2w92X0YV+G+l419V0bslhqqio0B89xOukLKah3vS9WMpLBlAFUi8PgRGo5DqDJRykRmMFqheQhppKsfNReqWSYTi57QSNuGcQDb+jvwI1EFH/DkeCqAZpIKbattIOanm3/a0t6fO/jKPTXdfSvtYhIDWhaa1niNrBaa4NoubuabqQdr2/gI42X0HHW6yi41/vpOJCnG83lklZTEMt9coSpRd71CYSVLl/wSasaCr3xQtIjXoNqheQhjpfsPw9lnjTLxVlFXRw6X4aUruPOmTGDKjUt53UBtMet+vbSmu1p/Y3t6aOtVrTolc/o1OdVzOmjGMyIioNgejeploF08Mtl9PpNuvo1Fd7qCQfkMY6KYupJBR2sjTqBaheghYJqF5C7jWkRr0C1StIQy2Hy2OApGfkY9u2fLlZnSFpYJ3ePkDN9WNqmkoVpnJyhvbU9qaW1P62lrTotc/oZCcLpiY0rY0/olILoCZEDUgPtlhKZ9puoCMfbaWi7AL9kUJimZTGVIAItWOOfM2LQyG8XGp1AmqkU12oyu8eC0iNugXVC0jl7EihIMVUmv4pLSihVWOX02jZIamOeYcjrb1rd1XtxZiqbaWC6W3amY4639qO2srhMDc1oxkvjNeWeWV7qQlNa5MRUeluhnR/8yV0vv0mOvrBFso/n6s/Qkisk9KYSkJtIzMq02Wkp6OzJl6gusXNXNnhJpaQGg0HqmyrtPs5t5DKc+pk5SDc74ekR4pzi2h+jzk0tt6wgGlUTaRmTGvJttLO1M2EaYdbWlPLG5pQr3s60l455237lQrLVEBUDomR7ubua7aYLrTfTMfHb6G809n6I4PEIymPqSSSJVF585U3d3OdQhvLnYHkz15OpPGC1Gg4sGTJXR5refzlfjpdgpfnxvxcyc/K8+B0D2e3YCOplYKsfPqq8XQaVW+IwtO8vCvtye2hMO1k+sDvNtTh1tbU+qbm9P6v36VxTw6gkx1X0+E2ywIRtQVUyjh6hagPUKkJT3MtiBqVQ2Mutt9Cx0ZspJwjF3EITJyTFphK3GxjlDdpJxGcBCm764i2goJcZ6jl6kgbb0iNxmIClOfG7racNNy2YiQ9k38xn6b8YxKNrDtITaKy05Fcaku8XfTDYTRMZXtpp9t4MmVQ293Siprf2ITe+/XbNPkPw+hU5zV0sPVSE5pBAPUUUROa1iowqyKq2uQHutBuE50cuplyD14ApAlI2mAqiXayc4qpJBagetlEQWrUa1CjxVReC4A0c3PxyAUa98woGnbHQAWo7HSk7XgkmOqTqTq+tAN11jFte0tLanNLc2p8Q0N654Y36ZPnRtHpzmvpQKslOqAWRO3QtNYOTnMdTqFBIWVEdzdeSOfbbqSjfdfRpZ04u1GiklaYSqL50OxIMJUkK6jyO4Xa0SbWkBr18vy3kWIqE34sJmQktSKT2cntJ2j4/YPUITOyw5GC1IKpbDOVybS9YHqrhmmrm5tRo+vfYVDfoK9enEBnOq2j/WZI7dC01g5Ocz1A1ID0bNsNdKLnOsraDkgTmbTDVCLYRbLsGymmkmQDVZaLQ0EqX/NyKTlcvdp71immct9keyz22kWMVJRX0MHlB6hfnZ40oE4v6l4FU22ZVybTjoypnLRBMG15c1NqfnMTeudXb9G7N75J3708hUFdY4+mtXZwmusWUakJ0jNt1tORjqvo7NqjgDTBSUtMjQh4MqWEQy8aTCXJAmo4SCXxmkqNRvuYWhMOU3n85XuAKGIXOQZ16zebaXCdfmoP3+76WY+6cbvKMi+D2llOcH9bW2rHr6e2t7SgVrc0oxYMarOb3qe3rnudGt7yFi187VM63ZFBbf6DLaK2cJobAaK2gEp1RKW7Gi+gk63X0pH2q+nUMndHKiDeJK0xNUfgk8NoZAlS3nzNdXPYTLwnPmvltp3sGRvt9uRo69VJEqx780rlHwby9wAUcRL52LaVE5fT0DsHUK/aXRWmvmVefTo1L/W2Zkxb8mTa4ubG1PTGRvT6df+hJrXepRVvzFCg7jWBagunuR4jqkG6kE60Wk1HWq+kMwv2Y2ejJEnGYBrLJApUp5BK4o0pDklBkimF2YU0v+88Gn7nIO2EDT5MtelUMO14W2s1nba5paWaTmWpt9lNjanxjQ3pv7/8D7Wo04jWvTOTTvI0uEcgtMPTqFtELYAaFUiPtVhJh5ovo+Mzd1Jpaal+D5FEB5h6FEEtnqDKbUVyQn+ZzO2uJ1Z1M+0jSCySdyGXvm4xg4bXHUTd1KkEtZPcd6mlbTfVlnpb83QqoDanlrfIttPGarn3/Rvepdd+8Qq1vbMpbW44l060W027BcU4ISrd3XgBHRFEW6yikzN2UWlxsX7PkGQIMPUwAqodLF43UkiNyBKp3fV5XUylSLIm53Q2ffTKhzT0zv4KUnV4jGw3ZVDV8aYMant+DbeRbac3y7ZTmU7fpyY3NqKGv36HXv3Fv6nT3a1oZ5P5dKzdKtrdnGGMMaJSgfRQs6V0utUaOjp1C//jGOfbTbYAU48Ta1CjhdRIrJd7ASmS7JFjUMc8O5IG3tFXIaphqu2I1PHWtr5jTlurPXu15d6mOqjvMaivMKg97muntpkebb2C9jRbaA+olKF0g+iexgsVpAeaLqGzrdfTsUlbKP8izrebjAGmMYgscdpB47ZuITUSK1ABKZIKkR12Tmw7ToMfHkj97+itENVO3uDHtL0s9ypQW+h79jamJjc1UttP37n+Lfr3L/5F/R/uTIdbLqHDrZZp21A9RtSAdH/TRXSu7QY6OmYj5Z3B+XaTNcA0RvEaVK8gNeI1qIAUSalUVNCBZXupb90e1Lt2d7XEK5iqHZGM6ZRf163VzkjN/cu9NzVkUN+jt69/k1755b9p+OM96Wib5XSo5dIAQN0iqkHKE28ThrTNBjo2fCNdPorz7SZzgGkM4xWoAqmXZxUy4hWogBRJxZSXltO2mVuoz+3d1dmROilMeTqVbacMqv+sSNqxp8Zyb2MG9X0G9a1fvUGvXvcyjX+6Px1vs5IONF9iD6jUDk5f/YCaIZWvCaQnhmyiy4cuyEit/+ZIMgaYxjhegBoLSI24BRWQIqmc4oJiWvnBChpQpw91rdVJB1UOk/Ev92qHyrSgljagvv6r/9Krv3qFpvxxKJ1ou5r2N1vsClEDUuPsRkf7rqfz20/i7EYpEGAah7gBNZaQGokWVECKpEMKLhfQ/P5zadAdfU3HnBp79sp0yqDyhKqWe29pSs1u1rafvn/Te9Toxnfpv9f9h/57/av0+fOj6WSbNbSvKYNqi6deE5zmGojuen8hnW69jk703kiXtp4CpCkSYBqnRHM6PzmUJV6JFFRAiqRTcs/n0FetZ9DAO/r5lnr9oGrHnra+VabT5tTcBtTXfvkqvXnjf+i7v0+ls+02MJqLIkZUQdpoAZ1quZaOdV1LZ9cc1X87JBUCTOOYSECNJ6RGnIIKSJF0TNbJS/TR65NpAE+oAZje1kadzEGmU9m71wC1KYPamEFteNO7atm3yR2NaXyTUXT2g510qf1WHVF7QKVmRHfzNCqQnmy5hk50XEOnlx7AzkYpFmAa5zg5cUIisQoHKiBF0jWC1/nD52nsc6PVJ810YESrgir/H7SgFsb205vfV1OqLP9OaT2ZysvKqfBkDp0ctpmy2m1hJBeERVRByt93rMUqOtZ2NZ38fj92NkrBANMEJBRYyYBVMPABKZLuEVCPbztOAx8ZQL3r9FCQapi2pXa3aZjKcq+x/bTFzc2o1c3NadwbYyg/O0+/EqLcgxfpcK9VdKHtRh+odogakB5tvpKOtFpFR7/ZhW2kKRpgmqDIkq8c8mJAJX+Wv0uWyJmcBFX5jFBB1OkJ9REk1SOg7l+2l3rX70k9andlRNsoTNV0elsrbWckBWoLandLGxrx9+F04fgF/af1MIhZu87QsW5r1AkXBEwzoGZIDzdfTkdbrKQTM3ZRWWmZfgVIqgWYJjjyiTMClZyIHkGQ5EhFWQVtmbWZut3ehbrV7qwg1TDVp9NbWlLH29rTkD8OpuO7jus/ZQmDemnLaTrcYSWdabWOdjaaXwXSg02X0bHmq+jw5C1UmI/z7aZygCmCIIhN5HNQV01eQX3v6EXdb+9K7dWJHLR2q9WFhj41mPas3BNyRyH52rlVR+lo21V0to1/QpWdjQ4xpGdarqMj4xnS7Hz9J5BUDTBFEAQJkpL8Elr/+Xoa/NhA6lG7m0K1c62ONO4fY2nfyr2Otm+Wl5dT9rpTdKzzWrrYdjNdaLOJLrXZog6BOfPRLirKwkSaDgGmCIIgIVJZUak+XPzo+iN0eM0hOrXzFJUWlzqC1IhMqGXZxZS78RxlLzpOOStOUcH+LKosLde/A0n1AFMEQRAnETy5oZZ1w0Z+Vr8eJL0CTBEEQRDEZYApgiAIgrgMMEUQBEEQlwGmCIIgCOIywBRBEARBXAaYIgiCIIjLAFMEQRAEcRlgiiAIgiAuA0wRBEEQxGWAKYIgCIK4DDBFEARBEJcBpgiCIAjiMsAUQRAEQVwGmCIIgiCIywBTBEEQBHEZYIogCIIgLgNMEQRBEMRlgCmCIAiCuAwwRRAEQRCXAaYIgiAI4jLAFEEQBEFcBpgiCIIgiMsAUwRBEARxGWCKIAiCIC4DTBEEQeKQirJ8Kjr6CWUvfoDOf1OTznx5DZ2acQ2dlH4RpNP9PWHu5/Y9/lmQfqr1BP/55Oc16dysmylnUysqzT2k/3aI2wBTBEGQGKeiNI/y9w4kWnIt5cwWKGuE7nStJ6z93L7HPwvSTwN7TO8Zvq6y72tSwYY3qDhrt/5bIm4CTBEEQWKc4nPL6exXNekyQyoo2gIqla8ZcJprA6jUFlCpCVAzosc+0XqUe3ZGDbrw/QOUvamN/lsibgJMEQRBYpiK0hwq2tuLaHHN4JDK35vxNGoDqNQWUKkdoFIdUXNP8fWcmfMA5Wxsrf+miJsAUwRBkBimvPgi5W9rRRWLbDCV/zbjadSCp1FbQKU6oE4QVZ2mYXqaMb20AZh6EWCKIAgSw5QXX6L87W2p4gcdU1MTgehRvcDU2wBTBEGQGCYAUwbMKaLHpXaASnVAo0HUhylfz+nvGNP1wNSLZAymlWXZVHZ5BRWf/pSKjo9VLTzcD02hynMmz588jwiSKlGYbmNMF9ZUQIYCVBprRFU/BqZeJ60xFUDlTTh73SOUtex6urToGjSNmrPpT+r5lecZQZI1gmkeY1puYBqkQRHV8fQKUaOC6UnG9AIw9SRpiam8uRbsbw9AM6jyfANVJBnjw3QBY8qAVUHUDKe5Op6RIGoLqNSEqPQI9yRfz8lvGdO1wNSLpB2msgQIRDO3sgyMIMmUYJhWwdMoI2eLqA2eRm0BldogqvoRMPU6aYWpTCd2b7BoZlVeBwiSLDFjeswOT6M6ngGASm3wVLXDU2rC0wqoucDU26QNpvm7G9q+saKZWdmeiiDJEIXp1rZUNp8xZcASjajRk3xdGqat9N8UcZO0wNTpRCrLv/ImK98vNe8piiZ/5TmT58/uubVr3vaX9VcIgiQutpjKpalOELUFVGoC1AmiR6ZqPfFJdcb0fmDqUVIeU9lGZvdGaq68AZecn4MdVNIo8nw6WY2Q70OQRCYAU0Yx0YgenlpdFZh6m5TGVHCUadPuTVQqX8MOKekdeX7DvQYqio7p340g8Y8P0+/9mIYDVGoLqNQEaDSI+jD9mDGdBUy9SkpjKkt/dm+g0sur6uJNNEMi/6jKXveI7etAKhMsgiQqBqaljKl8WkuiET08ReuJacDUy6QspqGmUvn78rzt+ncimZBwqxT4hxWSqARgyijaARp0pyKpCVAvEDV6nDE9wZheXANMvUjKYiqnlrN705RiaTczI8cY270epPJ6QZBERGG6hTGdZ4OpFU5zTYA6RbQKoDaISg9xj3/EmM4Epl4lZTENtlcn9uDM7Mjzb/e6kKkVQRIRW0ytcBo14ekIUGmEiB6arPX4x8DUy6QkprKkZ/eGKcXem5mdUNMplnqRRMS3zMuYCoyJRhSYxiYpiWmwN0yZPgRaJLMjO5/ZvT7waTNIIiKY5m5uSyVzbTDV8XSMaLDtoREgavQ4/4zCFDsgeZKUxDTYsaU46w0iCbbUi+2mSCIimGYzpoVzatIhBvEwY3lYLk2Vv1dVUNp0ivFnhtAMqNQCaDhED32o9Rj/LDD1LimJabCdj3BOVkQS7IxYcigVgsQ75UWM6SbG9DvG1IeiBqev/PeqNn8vkCocLbUFVGoHqFRH9KDeY7ID0jeM6Wpg6kWAKZJ2CXb8MTBFEhGF6ca2lP9tTTowuQYdZCQPMpAHjPLfqb/nP0sF0IPy3+rvGL4gUDpCVAfUjKgPU/4ZhSm2mXqSlMQUb5ZIqOD1gSRTBNPLjGnurJq078MatJ+R3C+Xxp/1HuD/9pUhNHpQrxVKu7/zlbEMhujBD7QCU28DTJG0C14fSDKljDG9tKEtXf6mJu2ZVIP2fuDvvoBW93U/oyc9oFchyEj6avwd1xGiOqDmHmVMjzOmF4CpJwGmSNoFrw8kmaIwXd+Gsr6qQbsnVmdQ9cqfubsnVuP/llanvabu4+5n9A5IGURzA6DU6xRRqVznUcb3+NfA1KsAUyTtgtcHkkwpK86nc2s70fnPrqStI39E20ZxjctR/091u94do39Eu8ZeSXsmVPOjyvAJrAauClgLloKjI0T5OowCU28DTJG0C14fSLSpLDtPlXlLqSxrAZVmLdQrfzb1ktH5Ifq91ovzqfjM13Rx/dt0fu4tdHDGzXToy5sCetj35xvp0IwbaN+0/6Ud46rRjjFX+KbXvVwzqApP/dJcK55GzYhWwRR783oSYIqkXfD6QCJNZWU5lZ3/jCpO/ofo4qtE514hOvtvvS9rPSP9F9Fpo//099Q/TP271pP65Ym/U/mB56hgx7Om/l7r9t9T/vZnTH2a8rY8ReeX3kd7P/45T61X0G6eUvdM0EHVUd0vZSR9y8A6kE4QVeXrOcoT7PGvgKlXAaZI2gWvDySSVFaU8AQ5nSj/P4ze81S09znuX0z9MxXtMfonKtrNlUv15z+qFu7i7v6D1l3SZ6lwJ1e/FDjzFZwmPLc9rZrn61OUt1Vr4Y5n6PK6R2nPR/9L20b8iHaPr67qQ5VBVKCageQ6QdToEcb0GGN6Hph6EmCKpF3w+kCcp5Iqig5R5dF/UsWRF6hg159N/RMV7DT6x8Du+INqvuqzWrdLzWhytwmaRnU8t0r9cOZt/R1Po+Y+qS4L+HvPLmpAW8dUpx1jr6RdDKnClCsT6n4pA2kF1bYmRNXPcRWmMxjTlcDUiwBTJCaRcyTLuXDlBBtG43VuXLw+EMepLKXyrFlEWX9nHO0QNUOqARoeUTOgkSLK3Sx9gjH9HWWtfZh2TPlf2iLT6bjqtIu7hydUH6gMpaoOpBNEVfnnj/AEe+xLYOpVgCniaQRROROVfOiA3XMkjfWZqvD6QJxGlnjLLk0nuvgS5QucwabRoIiaIfUGUWkuN3/rk5S9/jHaPe162jTkRwxpNVXfcq+Aap5SuU4QNQpMvQ0wRTyLQBrsc2atzV73SMw+4QevD8RxKkuo/NIXRBdeZCCjRZRrRVQBakE0KKCBiOZuelxVML3MmO78+Fe0gTHdyZDuHCugVldTasCEqtcWUROg5h5mTI9imdezAFPEk0QCqVH5qLRYBK8PxHEE04uC6d8YSg8QDTuJhkdU628Z0ycY00dp50e/onWDfkQ7xsjhMgJqIKZ7+VIm1ANSB4jul+/nHuYJFph6F2CKeJJgz0m45u9uqF+Dd8HrA3EcK6ZBETUB6gZRH6QmRDcHImo0f8vjdHndI7R96nW0ZsCPaNvoarRdYWqaTrmCqbHk6wRRo8DU2wBTxHVkKg21jTRUY/GB7nh9II6jMJ1OdP6vjGQsEDVB6hDR3I2PqSpM1zKmU66j1Qam3J0M6i5jOjVNqAKkE0SNHmZ4j34BTL0KMEVcp+T8HNvnw2nlw969DF4fiOOYMM0TPOOOqAlSHVE/pr9lTB+mbVN+Rav7/4i2jqpG27g7FKjVA0BVS71cJ4ju4++XGpieA6aeBJgirlMU5PNlndbr5w2vD8RxGNMywfTcC5S3zQbSAEQ1SGONaO7GRyl3w6P8c7+lrDUP0bbJ19Gqfj+iLSOrKVBlOpVtp7sY1N0Mqg9Th4gaPcSYHhFMVwBTLwJMEdcJ9nw4rdfPG14fiOMIphc+Jzr7PGMaDNHoJ1EN0mCIWiHVEM1RfYR/9jGF6dYPr6OVjOlmwZS7XZ9OBdM9Oqbm6TQconv1HmJ4j0wHpl4FmCKuE+z5cFqvnze8PhDHUZh+5sc0CRA1mreJMV39oMJ0RV/GdEQ12sI1YyqTqZpOuQpLB4ju5e+VAlNvA0wR1wn2fDit188bXh+I4xiYnnmOkQyHKDcOiOaslz7MmD7Kk6lg+stATPXpdOdohtRY6jVjquMZDFFgGpsAU8R1gj0fTuv184bXB+I4gul5A1O3iHIjQFSDtCqiRvM2PcKT6QO09QPGtM+PaNPwarSZu1WfTqtgKnWAqNGDDO9hxvQMMPUkwBRxnWDPh9N6/bzh9YE4joHp6b8wkMmBaM76hyhn3UOUt5ExXXW/wnR57x/RxmFBMJVtp1wD03CI7tW/H5h6G2CKuE6w58NpvX7e8PpAHMeH6Z8pd0tyIKr1Qcb0YZ5M76ctdpiOZExHMaQmUBWUDhA1qjD9nDFdDky9CDBFXCfY8+G0Xj9veH0gjqMw/ZQx/ZOGqRtEFaTBEDVBGgZRo7kbHqZLKxnTSSZMuVsZVMF0B2O6kzFVOyJxBUsniPowZXiBqXcBpojrBHs+nNbr5w2vD8RxDExP/pGR9BBRHdKqOxcFQ9QPafZa6QP88w8xpvcxpv+nYTpUw3QLY7pNx3SXYCrTKTcAU/mzCc6A8vdKgam3AaaI6wR7PpzW6+cNrw/EcQTTc4zpKcHUjKgf0pggajONZitIH/A1d8ODjOlvaMtExrSXhukmA9MRjOlIhlQHNQBTK55GdUSNHmBMDwFTzwJMEdcJ9nw4rdfPG14fiOMoTD/hyfQPjGNyIJq99n7V3PWM6Yrf0GbGdBljukEw5W5hUK2YyqWAGg5QqdrOyj3A8B76DJh6FWCKuE6w58NpvX7e8PpAHMfA9IRgmhyIZq+R3seYPsCY3hsS051SAZWrsHSA6G6BlwtMvQ0wTcLIp6iUXV6hznlrVP47WRPs+XBar5+3dH99IB7Gh+mzlMOYOkNUhzRGiBrNXX8/XVp+D22e8IuqmMpOSCOqa6CaMbWpGVBzFaafMqbLgKkXAaZJFEG0YH/7kB9nJl9PtgR7PpzW6+ctXV8fSAziw/T3lLPRK0R1SKNEVHX1byh3nYEpT6Y9r6ANQ6rRRu5mBlXt0cuY+iZTvtzDl04QVeXvP8ATLDD1LsA0SSKQ5m1/2fZ+WZu97hHPPwPUTYI9H07r9fOWjq8PJEYxMD0umCYHokZz1t1HF5c30CbTHozpYBtMdVDNmIZDVCrfvx+YehpgmgQRGHM2/cn2PgXr5VV19Z9OfII9H07r9fOWbq8PJIZRmE5jTJ/RME0CRC+vvlc1Zy1juqwBbRr/C1rKmK43YzqMMR3ux1SBaoenUROiRhWmnzCmS4CpFwGmSZBg9ydck2XJN9rf36jXz1u6vT6QGMbA9NjTjKQ3iCpIgyJqgdQG0curpPcwpr9hTO8OxJS7mUEVTLcxpr7tpnypwHSAqCp//36eYIGpdwGmCY5MpTJl2t2fcJVtq8mQYM+H03r9vKXT6wOJcQTTswamDKhC9LEEIqpBqmF6L2NanzaNY0y7M6aDNEw3MabaTkgMqVSmUyum8mcznkb5+4wCU28DTBMc2UvX7r44bfHpT/VrSlyCPR9O6/Xzlk6vDyT2KT3zCWP6GMN3H4NoKk+Gqmuksux6L0PIyDGMGp5+SL1EVHVlA76de+ji0kBMZbupwnQoYzrMBlO9oRA1uo8xPTgNmHoVYJrgyGEvdvfFaZPhPgd7PpzW6/uQTq8PxJ/KkhNUUbiaKnKWUHm2dFGY/qDX+t9GF1JZ1vdUfHIYVZ54kwr2/pcK9vzH1NcsfYXyd7zI0+uTlLP6Hh1NM6RmRE2ARoio1rt9mG5kTJcwpusEU24VTPUKqOEAlartrPz9+3iCBabeBZgmOMAUmCLhU5GzmKh8Kv8PM5YobzR3FHek6VI6wtThpg7TO9TUIaqVuYOp4kJfKjnRjYp97WpqF1M7U/HxTlR8pBXl73yJYWRQBc6oEDUBGoCoBqnCdHUDurC0HmP6v/aYDq1O2xlU2REpAFMTnOYaiBoFpt4GmCY4we6L0ybDfU62+xDs90mGxwqJPBV5KxnSCUSXBlL5+QFUfq6fqX1N7ePv2d6m9jK1p2qZag8qO9ODSk91ZyTtMLVAqjCVS/7vY+0pf/vfGMm7PUf08oq7KWtFff5ZwfSuqpgaOyExpjKd+jDl2iKqf81aYOptgGmCE+y+OG0y3Odkuw/Bfp9keKyQSFJJ5XnrqOQMT5VZg3h67E0lJ432MrUnf81oD73dTe3mqw/K41JG0VcdSl95AlXtyHAa7eAvf63ocHPKWfcIo9jAU0SNCtQXlvBkOvbnGqYDq9F6rm+PXgNTWe7lCpBOEFXl79/LU+wBxvQ0MPUkwDTBCXZfnDba+yx7EZtPWejmdIWJug/BEuz38fp2kDjkwggqO9WHSu0A9SFqAGqF1ABUrwI0FKIGoGZETYDyNOrrce2/87b+mSG8KwSiFkgdIJq14i7KWs7Xuao+Y1pXw7SbDaZDGFN9qVcw3cVIhkRUwNUr368w/ZgxXQxMvQgwTXCC3RenjfQ+C6KhTlkYzbGr8b4P4RLs9/H6dpDYp/JcXwukwRCtOon6lmyrIBoC0HCIHmun9Xh7KuFLWeq9vKKep4gaVZgurksbxvycFhuT6QDGdBBjyqAKptuN7aY6kE4QNbqX4QWm3gWYJjjB7ovTRnKfnZ5pKdLTFcbzPjhJsN/H69tBYp8ARB0AqiHKcIZdyrUgareUawVUta3Wo+2o5Ghbytv+V0awrqeIZi2vp5rNE++FxXdqmHZlTBlSM6ZbGFO11CugcqtgKv+t14zoDvleLjD1NsA0wQl2X5zW6X12CqnRSE5XGK/74DTBfh+vbweJfapuC7VHNPgUGgxRhtPpFGogynhqbeP777ztLzB8jGlUiHJtEM1aJq0bFNMNPKFuYlC3DGZMjaVeM6ZyqdcOUWAamwDTBCfYfXFap/c5mttxuuQbr/vgNMF+H69vB4l97BE1T6FmRMMBGimiDKYPUQbU3GPaZd625xnAOz1F1Gj2ynp0ftEdtGE0YyrbTBnSdf1DYMp1gqjRPQzv/o/up1PA1JMA0wQn2H1xWif3WabSUB/rFqxOT1cYj/sQSYL9Pl7fDhL72E2hGqKRTKE6olWWcu0ADYVoa3+PaZd+TG0Q5UaDqPTSUr7OFXUZ0zqM6f/Qoi5X0FqG1BZT2XYqFSQdIKq+lwtMvQ0wTXCC3RendXKf3Zyy0MnpCuNxHyJJsN/H69tBYp9AQJ0gagHUzVKuHaJHW2lVmLaivK3PMX53hEc0YLuojqiCtCqiRi+vuJMxrU3rrZjyhLqJQd0yiDE1gypYOkC0CqaLgKkXAaYJTrD74rRO7rObsyw5uf543IdIEuz38fp2kNjHB2jcl3JtAFVtScVHuPJnvszb+hdGsI57RJf5Eb209A5VhelCxnTUz2hR1ys1TPv5Md3MmPqmU74UIJ0ganQPw7t/KjD1KsA0wQl2X5zWyX0GprG5HSTWqWQUI0Q0kik0GkRVW/j+24dpyD10I0NUdQlf5/I76PwPt2uYdmFMGVKp2qPXwFSfTu0wteLpq3wvF5h6G2Ca4AS7L07r5D67uY1YX7/UyW1EkmC/j9e3g8Q6gqmXU6iOqNOlXAHThygD6mtz/nvtz7lb/8z41XaAaCCkoRA1enl5HZ5MGdORjGnnK2mNgSlPqBsZ1M0DAzHdwVA6QVQq378bmHoaYJrgBLsvTuvkPru5jVhfv9TJbUSSYL+P17eDxDqCaQhEFaDBELUA6mYKNSNq9Kh26cfUO0QvLamtepkn3vMLa2mY8mSqMO0biOlWY7spXyooHSBqdDfDC0y9CzBNcILdF6d1cp/d3Easr1/q5DYiSbDfx+vbQWIdwdQCaMym0GCImgA90szfo9pl7pY/MXy3e4ropcVas5bVpnMGpjKZMqRmTDfJZGpMp1wB0gmi2+R7ucDU2wDTBCfYfXFaJ/fZzW3E+vqlTm4jkgT7fby+HSTWMTCNFlEzoGZELYAGW8q1Q/RIUyo+zJU/82Xulj8ygIKpG0R1SHVELy6+XVVhOv82Wj+CMe1kwpQn1A0M6qYB1f1LvWZM5VKvHaIBmE5hTH8Apl4EmCY4we6L0zq5z25uI9bXL3VyG5Ek2O/j9e0gsQ5jWmUpNwSgXi/lmgE1ED3cRKv67yaM6R8YwlqeIqq6iK9z6e10boGOqT6Zrumj79FrxZQvBUgniKry9+9iePcxpieBqScBpglOsPvitE7us5vbiPX1S53cRiQJ9vt4fTtIrCOYOp1CI0U0HKBBEFVtTEVHmlCRYLqZMV18m6eIGtUwvZXWMaY/8GS6miGtgilXlnoNTEMCKtW/VwpMvQ0wTXCC3RendXKf3dxGrK9f6uQ2Ikmw38fr20FiHcHUDlGGM2ZTqI6oAtSMaGPVIqNHtMvczc8qTAMRNUEaBaJaGWieeM/NZ0yH/4wWdjRhyhPqBgZ1U3+GVMdUgWqHp1ETogGYTmZMFwJTLwJME5xg98VpndxnN7cR6+uXOrmNSBLs9/H6dpBYRzC1TKEKUTOgZkTNgDpB1AJokCnUj+j7/h7RLnM2/57huzUiRC+FQfTiD1qzltzGmN7CmP6UFhqTaW8/phsZU5lM1VIvXwqQThBV5e/fxRPsvg8Z0wXA1IsA0ygi57o1f7B2yfk5+lciT7D74rRO7rOb24j19Uud3EYkCfb7eH07SKwjmJqnUCukdpMowxnpUm6VKVRD1DeFmhE93IiKDnHlz3yZs8nA1EDUCinj6YPUGaIXf7hVVTA9O/9mWsuY/iCTKUMqmBo7IQmmMp2qpV4rplY8jcr36RVM9zKmJ4CpJwGmEUQQTcUP1nZzG7G+fqmT24gkwX4fr28HiXUY0wA8gwHqZAoNhmggoLZTqABqIHqooVb13w0Z02cYwlsYTIeIBkDKcBo1Iaq6kK9z8a109vubad0wnkw7XEmrGFIBdS1PqOsZ1I39AjEVQJ0ganTn4Gq0hzE9Dkw9CTB1GIE0b/vLtrdrbjJ+sLab24j19Uud3EYkCfb7eH07SKxjxjQSREMAWgVRy7ZQK6IKUBOiqu/x17TLnE1PM343R4ioCVIroj/cQhcYUumlxbcwpjfR2mE/oQUdr9Iw7RWI6WZjqZcvFZIOEN0yoBpt6V+Ndg4Cpl4mJTENdq7ZaCZDJxEcU/mDtd3cRqyvX+rkNiJJsN/H69tBYh3BNJopNBygfkirIhoCUF/f5e/TLnM2PcUACqYGoNYdi2wQtSznquqA+svXyRPv2Xk6ph0YU4bUjOmGvjyZGtMp11jqDQqojqhRYOptUhJT2UZp92Ypk2MsEg0W+bsb6j8dOvGAyM1txPr6pU5uI5IEW0Fw8nFySDJFMDUBGum2UFtE7QANhqgFUF/f0S4PMqYbf8cQ3mSDqBnQyBC9sEDK17noZsb0Rg3T9iZMeUJdx6AKpr6lXgNTB4gGYPoBY4q9eT1JWmHq9MOsI4lMpTJp2t1eqMrv4mS5Nx4QubmNWF+/1MltRJJgz5ebHcWQREQwNQCNAFE320LDIXpQr/5nDdMbXSLKePoQ1SBVmPLEe3buDbR2qI5pz2qqao9eM6ay3MvdYiz1GojaAOprv2q0YyAw9TIpiakgZfdmKfX6DTMdPljbzW3E+vqlTm7DaUI9XxVFx/TvQlIjjKlTQMMiaobUANQJon44iw6+7e8h7TJn45MMIWPqIaKq829kTG8KwHSlFdM+jKm+1Gtg6gRR6WZg6nlSElNJsOnD66XedPgsUDe3kSz3wWmCLfHKjmFIqsXANASiCtCqiIZeyg0HaAhED76lVWH6FuVseILxuyEIoiZII0DU6KUfbqQzjOkaK6a9GFMGVTDdZGw31YEMB6i5OxjePZOwzdSrpCymoZDzcjoFpqmDabDlf6lXt4HEM4KpFVGGM15LuVZAVd/Uekj7sx9ThtMHqWkSNe2d6xTRC/NvoPNcWT4+M+fXtGbIj2lBO8a0RyCm69VkWk11E7cKpvLfJjx9le/lAlNvk7KYhlrqle2VXi3ppQNE6XAfwkWe71DbtrHEm4oRTMMjGnoKDYaoBdBQU6gZUdU3tMsDjOn6xxm/XztD1AepCdEFVRE9/73WiwtvsMVU2wnpalqvplMbTOXSjKdRHVFgGpukLKYS2WPW7o1TKm+sTnYACpd0gCgd7kOoyPMsy7h21y2N1V7eSKwjmBqAmhENsS3Uy6VcO0QP6NX/7MfUDlETpE4Q9UH6a1UN0+sZ02tpfrsraUWPqxnUq2l1z6tpba+qmG6ROkDU6HaGdzcw9SwpjWmo6VQqE6rbJd90gCgd7kOwyA5HoSZSeQ2U523XvxtJrTCmlik06FJuyCnUBtGIplAD0df9Pahd5qz/LWN4fZSI3miLqFa+zgW/pjPfXUdrBtek+W0Z0+5BMOVu4iokHSAq3ysFpt4mpTGVhNpOZlQmE3nTjSbpAFE63Adr5PmUk3TYXZ+5ss0bSdUIpsGm0GCIhgA02inUjOiB/2oVTA/+l3LWPabg8xLR8/O0XlxwfWhMezGmZlAFyyCIytcMRAMwnciYzgemXiTlMZWEWu41V6YUgVXevM0NBa183e66nFR+NlzcXL801reR6Psgz418XSp4yvMXaknX3FidEQuJVyp1QM2IMpyRLuUqQIMhagbUjKgNoKr/0cqQFh38D78WH2X4fuUponJ90os88Z6ZbcGUu5pBXcOgrmNMbafTMIga3c7wAlPvkhaYSiI53Z+1od7M3UAR6nqNuLl+aaxvI9H3IdrrFnS92GaOJDKCaagpNBiiDKcXS7l2iKq+5ruUf9gpTMMgGrhzUWhEVefydc7/FZ2e/UtaPehamt+GMe12tQJ1lRVT7kauAOkE0U3yvdxtwNTTpA2mEifLfnaNxZu5NNT1GnFz/dJY30ai70M01y2vA0CaDhFM7RC1AzRKREMt5VYBlLtf+qr+369S9lrGdO51niJ6jq9PemH+dYzp/zGmNel7xnS5GVPuup6Mqb7Ua2DqBFGpfP9WYOpp0gpTSTTHhXr9Zm401PUacXP90ljfRqLvQyTXLcv42EaaTmFMw06hOqJVlnJDABrxFGpC1ChDWnTgFQ3TeTqmLhEVlA1Iz839JV34njH91oIpdxWDamC6wdhuqgPpBFGjWxne3ROAqVdJO0wlMpU43Y4q9erN3NpQ12vEzfVLY30bib4PTq5bEJVlfhxLmm4RTEMA6ukUaoOoFdD9r/jLkBYd+Ddj+jAjyPCFRZTrENFzc7Re+P6XjOkvaPVAxrT1VbS8ayCma/XJVE2n3CqYyn/rNSO6Ub6XC0y9TVpiakTeXGVSCbfDits382ANdb1G3Fy/NNa3kej7EOq65XmVr+PQl3SNganXiIYANByi+/+tVWH6MmWveYjOC3weInpuzv+pBsNU7YTEXdujmn+p14ypXJrxNKojanQbY7qLMT32PTD1ImmNqTkyrcphNHLyeXkDNhd78wZvou+DeW9eqfzjSP4OgGZCBFMTopEAGulSrgI0GKI6oKov69X+fHnNgwzh/4VB1ASpA0RVv2NM5/0fnZ71vxqmbRhThlRAXcmXVTDly0186QRRo1sZ3l3jgalXyRhMo40bKEIhYcTN9UtjfRvJch+QTAxjWmVbaBhEHS/lMpxOp1AzovtepsJ9/6JC/nPh/n9pmM75hQVSG0QVpMEQNUHKiJ777heqF+b9gk7N+jmtGnANzePJdBlDaospVzBVSDpAVL5XugWYehpgGibpAFE63AckEyOY2iFqBjQYonaARokoA1okgJrLkBbu/ydj+oCCLyJEg06jGqJa/5d/jjGdGQRT7trujKkZVMEyGKI6oOYqTMcxpvOAqRcBpmGSDhClw31AMjGCaYgp1PVSbghAbRH9p78MqR9Ths8KqAtEz0pnC6b/G4hpF8aUu5JBXcWYrmFMfdMpXwqQThA1uoXhVZjOBaZeBJiGSTpAlA73AcnECKZmQHVEQy7lWgD1Ygo1I7rvH1oFU768vPp+Ojf7554iepavT6ph+j+0qn8NmtdKw1S6woop14qpFU5f5fv0CqY7GdOjwNSTANMwSQeI0uE+IJkYM6YRTqGOEXUwhRqAqv6dCvdy9T9fXn2fH1OPEPVhOufndOqbnylM5zKmS82Yctd0Y0z1pV4fplY8jZoQlcr3bwamngaYhkk6QJQO9wHJxDCmIadQG0QjmUIVov8KgqgZUBOiqi9p/73vJbq86jd09tv/MSGqQ2oFNAJE5fqk5+f8jw/TOS0Z086MKXcFg2pgus7YbsqXBqjhEFXl79/ME+zOscDUqwDTMInmjEpGnSDh5vqlsb6NZLkPSCZGMLVD1AJoFUTNgNogqqZQfa/cKoiaIRUwTYD6+iL/vYD6ImN6rwlTJ5PoL4IgqgHq78/o/HeM6dc/1TBtURXT1TKZGtOpFVMdTztEjQJTbwNMw8TJR7wFq5PPUnVz/dJY30ay3AckEyOY2k2hdoCGmUIdA2qeQi2A+vo3/h4B9W+M6T0KviqImg5x8SGqALUgGgCohujZWVrPf/czOsmYrpRlXhOmy7krGdTVXav5l3oNTE31ASo1IerDlNEFpt4FmIaJnOxBTldnh0Coys84Ob1dtNcvlZ9zckJ3+R67nw/XSK4/1vcBycQIpuYpVIfU1bZQM6IWQJ0gapQhlcvLKxnTWT/1I+p0Eg2BqFzfGbnO737KmP6EVvarTnNbXkVLOl1NS7lVMJXlXu4GBtIJoqr8/ZsY0x2MKfbm9SbA1EFkGdIOglCN5LM0o7l+aSS3Ec0n6iTbfUAyLYKpeQo1I2oHaJSImreFVkHUBOjev2rdo19yL69s4Mc0AFHGM8w2UR+iPkg1RLX+hM7NZky/0jD9jidTW0y5BqYKyVCASvXvlQJTbwNMHcbpB1JLL6+qG/G0Fcn1S+X7I7kN+d5IbiPS65fE+j4gmRbGNOqlXONS8DQwtSLKlz485b8NQOW/gyC65wWt6u9e0DCdyfD5lnUFUWNJ1w5R41IQ5csqiHL5+qTnZv+EMf2xhmlzDdNlgil3JYO6uouGqW86tcNTrwGouZsY3h1jGNM5wNSLAFOHcYqRfE80n14SCXaxvo1kvg9IJsWMqRVRuTSmUP5vH5iCqDGB2gFqRVRqIGozie7hSwNQhenzWhlSDdO7dUyjQzQAUoWocfljOvctY/olY9q3mppMl3ZkTLmC6QrGdBVj6ptOuQJkAKIWPH2V7+UCU28DTCNMsOVS2fYnH/vmdtIKtRwrtyFfd3sbwT6ezqvrj8d9QDIhgqmgKZgaE6gZ0Uh3KJJaAZU/G3jKf8vEaUVUqiNqg6nA5yWi6vIbwfTHPkzn8mQqmEplmXcFQ6ow1afTAEyteBrVETVjup0xPQpMPQkwjTKyB6psJ5TKJ9F4jYP5+o1PSvH6NoxP0InV9cfjPiDpnEoq9CEq1QANnEINRI1LwVMuGc6QS7lSA1GpAGo0BKJGdUyzVjCm31zrKaJyfRqm1zKmNWllHx1TnkgNTFcGwdS2JkCNyvdvZHi3jwamXgWYIgiSpKkkOvEalRxgSAMQNeA0EDUmUB3RKlOo1IqoXNpNofLfNnhaqzB9njGt78e0CqICaOSIapc16dysmnRihmBaXTs0RraZMqYr1DZTE6Z6q4BqwtOM6Fr5Xi4w9TbAFEGQJE0llR1vSaUHBVMzosalgajUiqhcGnjKfxsTqBlRqYGo1AbNYDUwXc6Yfl0zCKIapMERFTirIirXd1quU2F6Da3sW53mMaZqe6kZU65gWmU61eEMAFSqI2pUDqWRbaYn5rbUH2/ETYApgiBJm7LcdVR0uDnRhf8yXmZA9SnU1VKuXNpA6aTGMq8PUztEfxYGUQPQQES1XkNnZzKmX9SgVX2v1jBlRAVT6cpONpjypRNEpWv4Z7f2qk57x99Px+e11R9txE2AKYIgSZ3y3NVUeaEJUdZ/iY6+zJPqP/X+Q+sB6d/5z0ZfMvVFrQekfzP1r3pfiK4H+We5uavq0wWeIC9+9zNfL6j+lC7MNvoTf7/9saXX8s9fS+f5OgI68xq6OPsaOvNVDVrb/2pa0OoqdWypOiSGIVTLuvpyruxwJN0o5WnTqDqJg5T/PqAM7Pae1enYkBp0ZPrf6dL+xfojjbgJMEUQJOlTkbeGKnPGUMWpdlR8pAkVHXrfpo1MfU/rQb0HpO96V77OwoPvUvb6P9C57+vShYUN6Lzec0YX3O3v/Pp676ra7+tZWlf1woK6dHrOnbRxTB1a2qs2rRtYh9YNqkMbBt9BG4fcQZss3SIdaqrxd5ZuG1KH9k96lE7Pa055x1bqjzDiNsAUQRAEQVwGmCIIgiCIywBTBEEQBHEZYIogCIIgLgNMEQRBEMRlgCmCIAiCuAwwRRAEQRCXAaYIgiAI4jLAFEEQBEFcBpgiCIIgiMsAUwRBEARxGWCKIAiCIC4DTBEEQRDEZYApgiAIgrgMMEUQBEEQlwGmCIIgCOIywBRBEARBXAaYIgiCIIjLAFMEQRAEcRlgiiAIgiAuA0wRBEEQxGWAKYIgCIK4DDBFEARBEJcBpgiCIAjiMsAUQZC0TyX3QmkFnSsuR71oSQVd5MdTHldECzBFECRtI2/2W7NLqeOREvrbtjx6buMlem4D6rr8OMrj2Zkf143ZJdqDneEBpgiCpG0WXSii53aX0gv7if60JQf1tLn8uFbS8/zYbskt1R/xzA0wRRAkLXO6uJye35ZDf9lRRH9cf5H+yBMV6nUv0p+35dOQo4X6o565AaYIgqRlpp4spL8eIUAa6/LjO/Rokf6oZ24yBtMdZ89T/2VrVDsuWEp/+XgGmsLtuXilei7HrdtM+y9e0p9lBPGn30FZhmRM7QBAPe3QI/n6o565SWtMBdBWcxdR/VEf0I97DUXTuPePnar+kXQ8O0d/9pFMz6BDecA0TgWmaYqpvKG+OuNb2zddNP0rqJ7Lw//cmR5gGr8C0zTEVJb+7N5g0czqL/qNpK937tVfFUgmBpjGr8A0jTAtLiujt76Za/vGimZu5R9XSGYGmMavwDRNMBVIH5s4zfbNFEUbz56vv1KQTAowjV+BaZpg6mQivXHQGPWmKnt/rjx6Ak2DDlu1Xm0blyVdu+fcXPleJLMCTONXYJoGmMqbpN2bp1HZk/ezbbv070bSMbIyIf9Iun3YBNvXgNE5ew/qP4FkQoBp/ApMUxxTOfTF7k3TqBwWg2ROsouK6aXPvrF9LUhlgsVevpkTYBq/AtMUxzTU4S/Y8SRzI8v5dq8JqRw2g2RGgGn8CkxTGNNQUykmUiTYhIrpNHMCTONXYJrCmAabPmSvXtmGhmR2ZMk32DZUrFpkRoBp/ApMUxjTYG+U2MkEMSI7Jdm9Rp6Z/Ln+HUg6B5jGr8A0RTGVwyLs3iQFWAQxItNpsMNmkPQPMI1fgWmKYhrscBgcnI9YE2zbKZL+AabxKzBNUUxlj0y7N0icixWxZvKmbbavFST9M/hIHr10kOgvmy6jMe7wo8A0JTENtvORLP8iiDnyDyy71wqS/mm39SzVW5VFdeYdQmPcTtvP64965iYlMZUPh7Z7g8RnWSLWBNu+jqR/3ll9jK797ihd+9lWNMZ9f+1x/VHP3ABTJK0DTDM3Ddceo5/PO04/+2I7GuM2WYdVQWCKpHWAaeYGmMavwBSYImkeYJq5AabxKzAFpkiaB5hmboBp/ApMgSmS5gGmmRtgGr8CU2CKpHmAaeYGmMavwBSYpkw2nDytzjUrJ2lP18oxoV4/h8A0cwNM41dgCkyTOnJu2VCfzZmuvXHQGPps2y79UXAXYJpcqagkKq+spHL+Q2xbQU03nGJMT9i++aPeFpgC06SNfOZmsE/GyZS+9c1c/dGIPsA0OSLAZRUU0bx9J+iLbQdo+pZ97rp5L3cPTd8k3U3TN+7SumEnTV+/gz5ftYmenb2Vfj7niO2bP+ptgSkwTdoEO0F7ptXthApMEx+ZRGdsPUC1B39GNftM09rbST+mmr3M/UhrT263ydwP6JouE+mazuPpmg5j6Jq2o6hG6+FUo+UQqv5OZ7p2+Gz6n5l7bd/8UW8LTIFpUmbRwSO29y8TK0u+bgJME5sKhvRLnkRr9vmEavaYTNd0HOusgmOVjqZr2uttM4I7jGq0GsJ4DqYazQZQjSb9qPr7vah6wx5U7bVWdO2QbxjTfbZv/qi3BabANCkjO+PY3b9M7Y6z0Z9EG5gmNov2H6fb+/Ek2d0hpHaAmhFVHcWQDqdrWjOmPIXWaDGIMe3PmPZVmFZ7rwdd/WpLYBrHAlNgmpR5dca3tvcvU+tmqReYJjY395lC13SyQdNap4hK23FbC6ZDtalUx7R6475UrVFPxrQ7MI1zgSkwTcoEu3+ZWmCauqnZdRJjOs4eUGmkiKqOVFOpgWn15oOoetN+jGkfP6avMKaDvwamcSowBaZJmVCYPjZxmgIinSrHz9rdV6PANHVjC6g0KkR1SHVMa7QaStVbCKYD/Zg2ZEzf7caYtgCmcSwwBaZJmVCYytfSLcHAMwpMUzeeI8qt0ZbLkMrOR9Vb8FRqYPp+b8a0BzBNQIEpME3KANPAAtPUjeeIth2h1YxpswFUXe18ZML0382BaRwLTIFpUgaYBhaYpm48R9SMqdpeylOpGdP3ulO1d7pqmMoOSLP2089m7EBj3CYbTurPeOYGmCZhgGlggWnqpgqkdogGQGpF1AbSNtqJGQIx7UPVG8lhMSZMB8ygn33Jb/afbopBN4ZouK876Cfx6089aJM1R/RnPHMDTJMwwDSwwDR1E3ISjQZRo2ZMm8phMWZMu6i9eeXsSNeOmU/XjvjOeYfPDtNv/R0WrLOqdqhdZwbvEOk3Dvq1Ws4O3a/8HRTYmr5+WbUDzZ0Rso3mbtCf8cwNME3CANPAAtPUjeeI+jDVji9VU6kPU+2wmGpvC6YtGNMJjOn3jCQjaFsBlC+tUAqIZjR9ZQDtgDT/3TBG0GgVHI3/ZgTtakbSDkWB06j6O3sgfR38JV9aGgCkCclBgTjW5Kle6xdVO9Dy3/2nU6M56/RnPHMDTJMwwDSwwDR14zmicgpBOSymhRlTOSymN1VXh8VYMQ03mZoxtasJ0yoTqFErqNyACVRqQBqkZkiD1gxpsAqipppwDTmFSq3AhqoZUy4wBaZJGWAaWGCauvEcUaMKU9leylOpOievYKrtyVvt7c509b8Z087BMLVD01wGMh6IeraUa8IzakClNmiaG2xS5QJTYJqUAaaBBaapGztE/ZBGgajqUDWV1jC2l+rn5FWYvsOYviWYNrfB1A5OcxnIsIgykHZ1CqjUFky72sFprgnQqBG1gGlXGzytBabANCkDTAMLTFM3VQF1iag6vpTbXDDVl3gF00aM6XuCaVfGtJMJ0+91KEOVkQwJqFRHMyigUhs4zbUF01o7NM014Rk1oFIbNM0NMYUGdjq2meoBpkkYYBpYYJq68RxR1SFqKpWPXVNLvI0NTLXDYhSmLzOmncbTtaODYcpAhkWUgbRrRIBK7dC01g5Oc02ARo2oBUy72oJpLQOqI2oUmALTiFJcVkZz9h6knotXqt8h2nZcsFS/RvvI99jdP6l8Ld0CTNM3togGg9QOUTtIq2Cq7cmrMH3bwLRZEEwZyYxDVGoDp7m2aFpbFVFg6g8wdRj5TM37x061vd1IGw5EYBpYYJq6CQTUA0TV8aXcZoKpvvORYNqQMVU7H3VhTDvaYMpIhgRUqqMZFFCpBU1rbcG0lpFM8UnUWmAKTB1FJlKvIJUC08AA0/SNZ5Oogah+sgaZSmuo40u10whqk6mO6ZuM6b+aqo9+u3b0vDCIMpB2jQhQqR2a1tqhaa4Jz6gBldqgaa6j7aGMZBhAa/b/3FdgCkwdZfKmbba3F22BaWCAafrGc0SNNhVM9Z2PDEyNydSKqVNEAwCVWtC01hZMaxnJNJtCzYiq9gOmEmDqIK3mLrK9vWgLTAMDTNM3niOqn6xBlngDMG3YowqmNTqOox+PsmLKSIZE1AZNc9NyCpXaoWmuBVAdUaPAFJg6SijcoikwDQwwTd8E3Ts3WkSNCqbG9lJ1jKkxmXamqxnTqwIw1dG01nNEGckMmEKr9jPGdK3+jGdugKmDANPYBpimbzxHVCrHmPJU6sfUfPajLjqmzXRM54YAVGpB01pbNK1lJCNB1ASoH1ETmtYm2RRqAGouMAWmjgJMYxtgmr7xHFE5JEZqwrSafFqMFdOXeTLtZMI0IkCldmhaa4emuTqeNojGfymXkfRoCrVro++AKTB1EGAa2wDT9E1QRAMgtSJqB6mOaACmsr3UjGlX0zIvT6YdxtCPRzKmGY2o1A5OcxnJKBGt2VcrMAWmjgJMYxtgmr7xHFGp+cxHZkzlvLxqB6ROPJk2o+o8yaptpnZwmmsLprWMZFwQtYBpV1swrWUkQyLKQHqAaM2+n6o2mosdkICpgwDT2AaYpm+8RFR93JpR0/bSaupzTP3LvOqkDf9pQ1e/1kbDTE7aUAXQCBC1hdOoDqcrQKU2aJqbwO2hATUB6ivfZtMFm/RnPHMDTB0EmMY2wDR94wc0ekTVCe3NkKozH/FU6sM0cJupTKZXv9GBrvrH++rrP5ZPjBFQ1bZTC6q2ZUStH9ZdpQypuSZga0odIWoB0662YFrLSAZDVL6urksuTa1yHVL5fpv6ro+htZa//osJC+mjrQf1ZzxzA0wdBJjGNsA0feMtojqkxpmPzJOpGdO3OlE1xvTq19vRVS+9p/6+Zp9P6MeM4I8Z1IAO/Vav/FnvELvO9FWbaqUarDUHc/m/a8qfdYgVqDypVgXUAaJeTKHyNb7dn438jv5v3Dy6bvwCrePM/d5U/p6A/+aONZe/HtDv6frx8+mmkbOo65Kt+rOd2QGmDgJMYxtgmr7xHFGjTRhS47AYYzKV0wnKp8a83Vk7ccPr7UmWe6968V0N1f+2ZWjlazy5yteN72F0r/6vuW3556xt4+tV0tekrf19VdpSfa0a/17X9P6YUZ3FoDGo8ZpCjfLXfzriW7p52Ax6e8ZiGr5sM32+/bBNDwXvNpu/M3fHYfpmz3E6mp2vP9MIMHUQYBrbANP0jeeIylmPjDMfVcG0u2mpt6M+nTKWAuS/mzOq79FVL7xFVz3/Jl353Bt05V9epyv//F/uf+jKP72m91W68o/mvqJ6xR+M/lvrs9KX6YrfS/9FVzzzT61P/52ueOKv6meqtxmhlpa1ydQGT6O2aFprAbNKjWXXz+knI2bT8x/Pp32nz+vPAhKPAFMHAaaxDTBN33iOqIKUq5Z5GVLBVM6ApHZC0jF9R5Z6tem0msLUNFm+1oqu5gny6ldaMLDS5uoTZuT0g1f/qwld9U9rG9NV/5C+H9i/v09XvtSI21Dve3QlT8BX/u0duvKvb2vgPv0SVW81jEGdWRXUGO1QJHg/MG4mFRUV6c8AEq8AUwcBprENME3f+BG1h9QW0aDTqFF9KjUw5clUTieoMA1Y6tW2nWqg8nSqMG3NmDKorxigCqY6qKqCqlY5JWEAqna4/r2RVgZVJt8r/yagar3iz6+pSTUAVFswrWUkI0RUtd90tc139vb9+qOPxDPA1EGAaWwDTNM3doBKo0bUqFrilcpUqk2m6pSCAqpgKtOpsTPSmxqo1RjUasb2TwNVM6z6tHqVLAkzsOpS/bmZ1n9JdWRVDVy1SVWDlVEVWH2g/kcHdai2Y1LIZV1GMlJETYe0yOE4vx74KeXkF+iPPhLPAFMHAaaxDTBN3wQiagU0CkQVpFy1vBs4mVZ/rwdXlnqlOqj6DkfGNtRqrzOosiMSo1pNLf22pmoCqxlXWQaWnYmkDO1VjGxAfeCacbXAqibVdxWq4UG1Q9NcE542iGr9TO1ZfO/YmVRRUaE/+kg8A0wdBJjGNsA0fePZJGogqpZ3zUu8UplKtcnUB6qaTmW5VyZUBlVNqAaoPKWqarBebbPHrpzwQQEr21jN9U2yevXtrgGwKlT9S79qSvWBOkQ7nEYd62kHp7mMZEhApf4TKsj1PvjBXP2RR+IdYOogyYRpKlUgcxJgmr7xHlG9aio1lnj9y7wCqSpPp+oj2QxQZUI1dkqSZV/Z09fY21cOjTHXODzG3ABkTdCacVWw6qjK9lWZUn0T6ntqz2EFasvB2skdZCoNB6gton5AzRVMH5gATBMVYOogwDS6AlMkNoiaa0AaOJlWf6+bwrQ6Yyo1T6hXSxlVVQNVH6zW2uBqnmLNS8QGqLJDUwCoPKWqCVVA1SfUFlZQGcmQgErtETXOkyvX98CE7/RHHol3gKmDxBvTjguW2v5cqtUppuPWbbb9eaPANHXjHaLBIOUqSM2g+ifTKqDydHq1qo6qgtWEqxXZ183IGrBagDUvC/sOuxFQeUo1QJUdk8xLvk8ZE+pX+nIvY2mLqAVOcy0nmwemiQ0wdZB4Y/r1zr22P5dqdYKpQGn3s+bO2Rv9eT+BaWITU0QDap5MA6dT7dhT2YYq06m5+tIvg+qrsbOSuYyqr4xrtTdscLXuJaymVDnkRj9+1VjyZUz9oL7EE+og7aT4Mp06QdQCqLnANLEBpg4Sb0yLy8qo/qgPbH82lRoOUyeQSs/lRX/KMmCa2AQgGgxSO0QVpFZEuXaIBizzCqL+KkhVBVO9ZkyNGqgqTA1YzaDKJUOqb29VqKpqOzL5QA2YUHVQ/8WgyoTq28uXJ9S/vkNX/Ok1C6hOJtGqiBoFpokNMHWQeGMqCYZAKjUUpk4hfWby5/pPRBdgmtiER9QG0ogRNWHaUEdUQWrGVJ9OAyZTvQpScw1MzTWhqqqjylOq7xhWY8nXmFBfkQnVvw31atnL9++N6Ep1cgc5U5IG6o8E1OYDGdQvq4IaYhK1VkB+YMJs/ZFH4h1g6iCJwFSy4eRpun/sVNvrSIUGw9QppL/oN5L2X7yk/1R0AaaJjS2iPki9RFSr+lxThSnjaVQ+NNyYSn21QdU3oVpQDYBVn1B9mHL16VQDlasmVH2519iGKofOqO2njelKM6gvvE1X/PFV+tHvXvSDKsu8ESAqn4gjBaaJDTB1kERhKpEl30UHj1D/ZWvUzyVTw0Fvh2kk24Pd7HhkBJgmNmEB9RxRU32TqQnRt6XhENUhDZhMDUhDTaf+CVWdEIJBvYpB1U70oB+LatrDV53Ll6dTDdRXGNS/UfVmDKp8yoyaSm3gNKoDai4wTWyAqYMEu71oe/uwCfo1p3bCTZhWTOUfBTJt2n2vtV5AKgGmiY0fURtIPUPUAql1edcHqhXREJBWmUaDQSqTqVQH1ZhQfdOp/tFsr3AFVOOQGX37qQbq23Tl82+pT6XRQO3PoM6wB9UGUaPANLEBpg7iNaZSNzvVJEsiwTQRkEqAaWJTBVDHiOqQukaUayzrWmtFNewyrwlVH64GqAam7fXDZaT+vXs1THlCNc6UJCfLl3P5vsigyt69L7ylVT5t5gkLqDZwVu00tUQMTBMXYOogscDUzeEeyRKnmCYKUgkwTWwiR5TR9BRRSwMAjRJR62SqY+o//lQaiKnsjFR1udcA1dh+ypg+9yZdKZ+V+uRf1Y5b18pJHUJOpNO09mZMBzKm44FpogJMHSQWmMr2RtkemspxgmkiIZUA08TG/jhRaTwRZTQjmUTtlneDIcr1n9TBDKqBqRlUwZQrn0ijlnv1E+Prx59qy72MqVQmVAG1iR2oOqA6okaBaWIDTB0kFphKey5eqd9CaiYcpnL/EgmpBJgmNlUQDQDUBGlMENUhjQeivjKkaonXKEPqw1Tbs1ebThlTY7nXd7pB//ZTmVCvePZly4SqQ2oC1FxZFn5g/Lf6I4/EO2mFqdvDKIIlVphKBZxUnVDDYeq0sYJUAkwTGz+kQRANgDQMosEgdYSoDqkdohFCGhRR61RqTKavCqb+6VR9ZqpvOtX37jWWe9XevYypTKcGqE8IqH3pWjlLkkymFkS1fgxME5yUxLTx7Pm2b5DyxhmLxBJTqSz5yjbU7KJi/RZTI15gGktIJcF+RyQ+SUlEFaDRIKpDGrDEK5XpVI451adT9eky+rZT385I+nKv73AZmU7foCv/8oYfVFnyDQD144BeO0AwxTJvopKSmMo0Z/cGOXnTNv07vE2sMTVXYJXbS5aG2uvYLaaxhlQybNV629tG4pMqiPoADYQ0IkRtIfUAUR+k0SCqQxqwxGtAakym+ikG1XQq5+01T6f6zkjG+Xtf0LefCqhc35JvE5lQP9eXe3VIe2lVe/OO+kp/5JF4JyUxDfYG+eqM2CxxCCp2t5cJDbUd2g2m8YBUIqcjtLt9JD6xn0SjRLQKoEmMqG+Z14BUn0x95+zVTzNoTKemY0+N7adXGTskKVDfpCtkpyQ5DlVAlUNmepuXfOU40y/p3m6j9EceiXdSElPZNmr3Bik7u8Ri+yMwtU+0mMYLUvnd7W5fXidIfGIHaFohGgCpGVGjxmQqS7xGte2m2nTazPTZp4HLvXIyfJlQr5Idkp7XQVVnSnqRqr3fWy33XqtXJtXqzQfQ3e+01h95JN5JSUwlwU5lJ5+N6XWAqX2iwTRekEqCfS7sS599o38HEuuoyTTaSdQW0hRD1DyZqiVe01KvPpnK555qoBqHymgnc9AmVAbVtIevBuqr6uT4MtFW44m/WqMe6s8yudZv2EF/5JF4J2UxDbbdVE7V5/XZhYCpfSLFNJ6QyupFsMNyYrVtHamaH8sHgzOmaYOoD1BpGETNkBo1lniN+kDVP6bNN53K9lM5mYOxQxKDauzlq2B9XX3A+BU8pV7xu5foimf+qeCt935n/ZFH4p2UxVTADPZmKdvJvFzuzVRMwy2bR4JpPCGVvaKDfR6s/GMr1U+WkUp5bvgn9OP3e1M1BWoYRKsAGgLRAEjjgGjEk6gFUQNSK6ay1KsmU+4/9Y9p4+n0Sgb1SnUyfP38veoj2wRUfUoVVAVXUwXiv/XGJoxEJWUxlQRbxpPKUp5Xb5qZimm4zxJ1imk8IZV/ZD02cZrt7yGNxWYAJHhOX86lvwz/SH28WDVZ5nU8idpBakXUBGkEiNpD6gRRqRVSE6I+SC2ImiH1gSoTqVH/Uq9/OtU/qu0lxlSqJlT9pA4Gqsa0Kv/94nv049da0qJtu/VHHol3UhrTUNOpVN5UQy1TOk2mYhoOHvm8VbufMzeekMrvE2wilWIqTUyOXrxMD/SZQD9pPVSbUGU7n1yqMrDWbakCrnWClc8k9cFrwlc+Us0Hrw5swhHlP/u+z1JjavXtjGTg2oKuelkqh8sYe/hy/9GErlSVaVVwNaZV6XtaGdv/e7cTtflwuv6II4lISmMqkZMd2L1xGhVsZYJ1g2omYhpuKpUITAKU3c9L4wWpnKxDDouy+x2MyutAsEUSk3PZedTok++ofrfRdFvH4XRbh6F6h2ltz39uP0S7bCd/1tuO/07aVr9sN5j/bO4grfz3N/H3/ESWlAXUhCDKle/hn/tl4150a/M+dFuz3np72bQn3dq0B93axGh3bje6tbHe97vSrY266O1MtzTsRLe8x323I7cD/5nbsCM93mkQfbRolf5II4lKymMqCbYzkrWyB7B8r3zQtrnhoG01d5Ht9aVrZYnc6U5cciL7GweNqXIdXkMqYFqfN3leQmFurnwoOZL45BSW0LGL2dzLlmbZ94KzHj5/iX7YsZ8aT/2Gbmg9UJtSqwAaQ0QVpK3pJzwhP959JH3IuO04foqO8e8V0AuBPcp/5+/FoD0ml+dsyn+PJEfSAlNJsFMMOmm40xA63TaYypV/aLz1zdyo0JF/jAhugrBcRyxO6yjXb/d7O6mc5APJnMzZspuua9aHrn6zU3wQNSB9rxu9N/ELKiot1X8TJJOSNphKgp0ZKVzDvfnLcmaw41qjqSwbI5ElGkxlaTcdPjcWiTyTFq+lGg17xB5R2d6pQ9po0hf6rSOZmLTCVCJvnk6X/ow6maR2nD1vu5wZTYFp5IkUU/nHjzxnSGamsrKSbm/Vj65+q3PsEDVB2nAidv7J9KQdphKZJGVKdYqf02VJr0AFppHHKabyD6l47kGMJG9eHjlN7fkbE0QDJlJAiqQppkbk4H15Y5U9PUMdQhPJNj4vQAWmkScUpvJ8GNt7cegLYuRtnhblUJrQiFogdYKogrQV/bQhIEX8SWtMzZE3WUFTKm/M5kZ62IxbUIFp5LE+b3IMrPF8Iohd3hj/mTaZeomonFOX/14m0vc/AKSIPxmDqddxAyowRZDYR8O0a2hEg0FaBVE/pD8VSD/EzkZIYICpi0QLKjBFkNjHh6kXiMp5dA1IsbSL2ASYukw0oAJTBIl93hjLmL4tmFoBjRBRHdKfvAtIkeABph4kUlCBKYLEPm+M/ZQx7RL9JOqDtCVD2pUhxdIuEjzA1KNEAiowRZDYx4dptIgakL7TBZAiYQNMPYxTUIEpgsQ+ClM5aUPEiDZXvYq/9mOGtDH22kUcBJh6HCegAlMEiX2qYBoWUR1S+Rg0/rpMpIAUcRpgGoOEAxWYIkjso2HayTmiMo0CUiTKANMYJRSo8gk3CILENm+M/YSqySfHOEVUQdpCQdoEx5EiEQaYxjDBQJXPAEUQJLbxY+oAUROkTT/EyhESeYBpjCOgyrKuAamcBg9BkNjnjbHTqNobHcMj+nIztbT7U4H0A0CKRBdgiiBIWuaNMWZMgyAq5a//5O3ODCmWdpHoA0wRBEnLaJh2CI6oDulP32FIcRwp4jLAFEGQtIxgevXr7e0R/ZcG6U8AKeJRgCmCIGmZ10Z+pGNqQfRfTX0TaTNsI0U8CjBFECQt02Lyl3T1mx0ZT55KFaKBkDbnryOIVwGmCIKkZbYcOU43NO5BV73WRh32cpVsO32lJf3s3S4MKSZSxNsAUwRB0jafrVhPD3UZRrVa9qWbm/akuu0GU5upX+tfRRDvAkwRBEnrVFZW0vTVm2j43MW0+dBx/W8RxNsAUwRBEARxGWCKIAiCIC4DTBEEQRDEZYApgiAIgrgMMEUQBEEQlwGmCIIgCOIywBRBEARBXAaYIgiCIIjLAFMEQRAEcRlgiiAIgiAuA0wRBEEQxGWAKYIgCIK4DDBFEARBEJcBpgiCIAjiMsAUQRAEQVwGmCIIgiCIywBTBEEQBHEZYIogCIIgLgNMEQRBEMRlgCmCIAiCuAwwRRAEQRCXAaYIgiAI4jLAFEEQBEFcBpgiCIIgiMsAUwRBEARxGWCKIAiCIC4DTBEEQRDEZYApgiAIgrgMMEUQBEEQVyH6/wFAgR5iF8YexwAAAABJRU5ErkJggg==;" vertex="1" parent="1">
          <mxGeometry x="700" y="234.5" width="99.5" height="130" as="geometry" />
        </mxCell>
        <mxCell id="cc_eaUNHnA19SBqIS2rI-12" value="" style="sketch=0;aspect=fixed;html=1;points=[];align=center;image;fontSize=12;image=img/lib/mscae/Azure_DevOps.svg;" vertex="1" parent="1">
          <mxGeometry x="297" y="500" width="50" height="50" as="geometry" />
        </mxCell>
        <mxCell id="cc_eaUNHnA19SBqIS2rI-13" value="" style="sketch=0;aspect=fixed;html=1;points=[];align=center;image;fontSize=12;image=img/lib/mscae/Application_Insights.svg;" vertex="1" parent="1">
          <mxGeometry x="393" y="500" width="32" height="50" as="geometry" />
        </mxCell>
        <mxCell id="cc_eaUNHnA19SBqIS2rI-14" value="" style="sketch=0;aspect=fixed;html=1;points=[];align=center;image;fontSize=12;image=img/lib/mscae/Monitor.svg;" vertex="1" parent="1">
          <mxGeometry x="467" y="500" width="50" height="50" as="geometry" />
        </mxCell>
        <mxCell id="cc_eaUNHnA19SBqIS2rI-15" value="" style="sketch=0;aspect=fixed;html=1;points=[];align=center;image;fontSize=12;image=img/lib/mscae/Advisor.svg;" vertex="1" parent="1">
          <mxGeometry x="550" y="500" width="50" height="50" as="geometry" />
        </mxCell>
        <mxCell id="cc_eaUNHnA19SBqIS2rI-16" value="" style="sketch=0;aspect=fixed;html=1;points=[];align=center;image;fontSize=12;image=img/lib/mscae/Key_Vaults.svg;" vertex="1" parent="1">
          <mxGeometry x="630" y="500" width="48" height="50" as="geometry" />
        </mxCell>
        <mxCell id="cc_eaUNHnA19SBqIS2rI-18" value="" style="sketch=0;aspect=fixed;html=1;points=[];align=center;image;fontSize=12;image=img/lib/mscae/Security_Center.svg;" vertex="1" parent="1">
          <mxGeometry x="210" y="500" width="36" height="50" as="geometry" />
        </mxCell>
        <mxCell id="cc_eaUNHnA19SBqIS2rI-19" value="" style="sketch=0;aspect=fixed;html=1;points=[];align=center;image;fontSize=12;image=img/lib/mscae/Azure_IoT_Hub.svg;" vertex="1" parent="1">
          <mxGeometry x="720" y="144.5" width="50" height="50" as="geometry" />
        </mxCell>
        <mxCell id="cc_eaUNHnA19SBqIS2rI-20" value="" style="sketch=0;aspect=fixed;html=1;points=[];align=center;image;fontSize=12;image=img/lib/mscae/Container_Registries.svg;" vertex="1" parent="1">
          <mxGeometry x="610" y="307" width="50" height="43" as="geometry" />
        </mxCell>
        <mxCell id="cc_eaUNHnA19SBqIS2rI-21" value="" style="sketch=0;aspect=fixed;html=1;points=[];align=center;image;fontSize=12;image=img/lib/mscae/Kubernetes_Services.svg;" vertex="1" parent="1">
          <mxGeometry x="610" y="234.5" width="50" height="37" as="geometry" />
        </mxCell>
      </root>
    </mxGraphModel>
  </diagram>
</mxfile>
